<?xml version="1.0" encoding="UTF-8"?>
<svg xmlns="http://www.w3.org/2000/svg" viewBox="360 360 360 360" width="360" height="360">
  <defs>
    <style>
      .f {
        opacity: .5;
      }

      .g {
        fill: #ea836d;
      }
    </style>
  </defs>
  <g id="c" data-name="moon" transform="matrix(1, 0, 0, 1, -4.984375, 110.375)">
    <g>
      <circle class="g" cx="544.98438" cy="429.625" r="180"/>
      <path class="f" d="m516.98438,556.625c5.58038-.38959,21.12213-1.47467,36-11,3.76019-2.40741,8.38559-5.93506,16-8,3.93427-1.06689,8.12262-2.14307,11,0,3.78198,2.81683,2.17535,7.41632,5,11,4.9859,6.32568,21.52814,5.32477,33-2,14.38403-9.1842,9.11969-20.85474,23-34,14.31482-13.55676,26.57007-9.37927,40-18,26.78729-17.19482,26.33014-68.62231,21-97-13.67743-72.81885-83.69348-122.98041-97-114-13.96863,9.42728,29.86554,87.1947,16,157-6.12531,30.83746-19.66071,40.73688-23,43-11.04895,7.48816-17.80835,3.70996-34,13-18.76889,10.7688-16.99954,18.6037-32,27-25.45688,14.24915-50.27539,2.72388-53,11-2.00693,6.09613,9.82266,17.3197,22,21,5.69031,1.71973,10.17926,1.40637,16,1Z"/>
      <path class="f" d="m390.98438,470.625c2.30847,8.79108,9.64349,36.724,32,46,1.67944.69684,13.54617,5.62048,18,1,5.69781-5.91101-7.62766-20.29333-9-49-.43671-9.13541-.71429-17.11505,4-25,6.28897-10.51871,15.19815-10.39291,16-17,1.24539-10.26172-19.80807-14.17099-24-31-2.60367-10.45276,2.73825-20.10587,6-26,8.98364-16.23386,20.7771-17.61807,38-32,17.75049-14.82251,34.4487-37.75671,30-44-4.4173-6.19919-31.04568,2.14636-51,16-29.33063,20.36328-40.67822,50.15338-49,72-8.59067,22.55249-20.34537,53.41132-11,89Z"/>
      <path class="f" d="m526.98438,596.625c14.43671,1.26422,25.12747-.08862,32-1,4.04861-.53687,40.37085-5.35364,41-15,.22437-3.44019-4.18378-6.29346-13-12-7.97937-5.16486-14.07556-9.11078-22-10-9.52817-1.06915-12.66263,3.2948-32,10-13.69324,4.74811-20.53989,7.12213-27,7-14.66739-.27734-33.40884-8.51624-40-23-3.5022-7.69592-1.66071-12.95068-7-17-3.99213-3.02765-7.4361-1.9212-20-3-15.39227-1.32166-18.8273-3.72113-20-2-3.21292,4.71552,18.37656,28.88397,45,45,28.10782,17.01459,53.79849,20.19421,63,21Z"/>
      <path class="f" d="m652.98438,514.625c-2.19989,2.31268-4.46661,6.87512-9,16-6.76825,13.62311-5.97382,14.21082-9,18-7.27814,9.11328-17.24438,12.43921-19,13-9.7854,3.12573-16.36011.79962-17,3-.74048,2.5462,7.08521,9.02429,16,10,3.24982.35565,10.67798.42157,29-14,17.73932-13.96295,13.61163-16.25653,30-29,7.28949-5.66821,14.97064-10.55225,20-21,1.20392-2.50098,4.49329-9.33411,2-12-1.09973-1.1759-3.52692-1.75745-21,5-17.80402,6.88544-20.62543,9.55493-22,11Z"/>
    </g>
  </g>
</svg>