<?xml version="1.0" encoding="UTF-8"?>
<svg id="b" data-name="Layer 2" xmlns="http://www.w3.org/2000/svg" viewBox="0 0 41.04796 41.06291">
  <defs>
    <style>
      .d {
        fill: #15002a;
        stroke: #000;
        stroke-miterlimit: 10;
      }
    </style>
  </defs>
  <g id="c" data-name="Layer 1">
    <g>
      <path class="d" d="m3.51227,28.50545c1.33218.15988,1.99136-3.61578,3.80182-3.73785.92557-.06241,1.91336.84546,1.9711,1.60376.08234,1.08142-2.02875,1.48505-1.9711,2.40564.06805,1.08691,3.01306,1.05563,3.50385,2.6409.33279,1.07495-.65015,2.28232-1.30566,3.08755-1.85672,2.2807-4.09714,2.66327-4,3,.13705.47513,4.88254.70093,7-2,1.07657-1.37323.56567-2.3446,2-4,.95694-1.10443,2.76764-2.49936,4-2,.98907.40076.88062,1.72797,2,2,.76199.18518,1.22528-.32944,2,0,.52072.22144.75916.64435,1,1,.68658,1.01389,2.31006,2.83554,3.51294,2.68652,1.41495-.17529,2.22049-3.11237,1.9711-3.20749-.22821-.08704-.93588,1.64566-1.9711,1.60376-1.02957-.04166-1.84183-1.8168-1.9711-3.20752-.15482-1.66553.59793-3.55423,1.47833-3.60846.75647-.0466,1.18198.84256,2.46387,2.00473.37363.33871,3.42053,3.03748,6.51596,2.72845,3.04688-.30417,5.35278-3.44379,5-4-.28268-.44568-2.09827,1.04175-5,1-3.01627-.0434-6.9462-1.71655-7.5015-4.53973-.36072-1.83392.82883-3.5116,1.5015-4.46027.57651-.81308,1.99194-2.80931,4-3,3.09222-.29364,5.21692,3.91959,5.92755,3.46368.71378-.45792-.27585-5.44078-3.43463-6.86926-2.13895-.96729-3.98578.33162-5.72437-1.14488-.98282-.83463-.56757-1.39821-1.77728-2.82397-1.60684-1.89378-2.8317-1.47966-3.94711-2.90039-1.77283-2.2581-.43951-5.54721-1.14487-5.72438-.2908-.07304-.70731.43832-3.43463,4.5795-.92593,1.40594-1.42838,2.18279-2.28973,2.28975-.99786.12392-1.86453-.72723-2.28976-1.14487-2.00095-1.96518-1.95972-4.61201-2.28976-4.57951-.353.03479-1.0386,3.12656-.37302,6.67802.22565,1.20409.13617,1.97496,0,3.2075-.20374,1.84416-.33484,3.03084-1.22238,3.96881-1.80884,1.91161-5.1297,1.06779-5.27383,1.02905-1.15143-.30952-2.00098-.9175-2.28976-1.14488-1.61313-1.27022-1.80301-2.36334-2.28973-2.28975-.90088.13623-1.95142,4.138-.25818,6.0546,1.27789,1.44647,3.452.95074,3.69278,1.95953.1951.81744-1.30679,1.20502-2.28973,3.43463-.30783.69824-.81091,1.88531-.29153,2.95682.11829.24402.45288.93433,1,1Z"/>
      <path class="d" d="m8.51227,13.50545c-.97913.35999-2.37314-1.11403-3-2-.52017-.73517-.40292-.91115-1-2-1.15729-2.11047-2.18536-2.52103-2-3,.32529-.84058,4.11142-1.17764,6,1,1.35049,1.55719,1.06027,3.6272,1,4-.09628.59541-.28064,1.73552-1,2Z"/>
      <path class="d" d="m32.51227,20.50545c-.89948.41196-1.35516,1.88742-1,3,.50333,1.57669,2.47092,1.91031,3,2,2.47531.41968,5.11093-1.14816,5-2-.04568-.35074-.53421-.40533-2-1-3.40292-1.38052-4.07111-2.42545-5-2Z"/>
      <path class="d" d="m17.51227,32.50545c-.33881-.05374-.68585.4935-1,1-.6676,1.07632-1.34567,2.16959-1,3,.59229,1.42291,3.66946.82318,4,2,.23813.8479-1.1915,1.75653-1,2,.20575.26157,2.18909-.36386,3-2,.40756-.82233.68997-2.24503,0-3-.77808-.85138-2.06918-.06186-3-1-.76096-.76697-.52274-1.92429-1-2Z"/>
    </g>
  </g>
</svg>