<?xml version="1.0" encoding="UTF-8"?>
<svg id="b" data-name="Layer 2" xmlns="http://www.w3.org/2000/svg" viewBox="0 0 38.00447 48.78748">
  <defs>
    <style>
      .d {
        fill: #f1d694;
      }

      .e {
        fill: #bf681b;
        stroke: #000;
        stroke-miterlimit: 10;
      }
    </style>
  </defs>
  <g id="c" data-name="Layer 1">
    <g>
      <path class="e" d="m1.85465,42.18169c3.03281,5.09808,9.879,5.71759,13,6,6.35016.57462,15.30441-1.159,17-6,.7348-2.09793-.4642-3.1503,0-7,.42148-3.49515,1.8432-6.22173,3-8-1.66666.66667-3.33334,1.33333-5,2,.33102-.96558.73154-2.33075,1-4,.47479-2.95201.82816-5.14912,0-7-1.6824-3.76007-6.6218-2.47231-8-6-.79456-2.03378.07462-4.43915,1-7,.62411-1.72711,1.39331-3.07289,2-4-2.53778,1.16858-6.11963,3.28949-9,7-1.40991,1.81625-2.35617,3.03525-3,5-.66669,2.03452-.61594,3.66895-2,6-.56149.94566-1.23648,2.0551-2,2-.87582-.0632-1.64758-1.64279-2-4-1.83685,2.32921-4.53809,6.37009-6,12-1.16821,4.49887-2.34995,9.0498,0,13Z"/>
      <path class="e" d="m31.51599,5.20814c-.33545.50378-.78433,1.17792-.66135,1.97356.12927.83627.78244,1.10881,1,2,.19205.7867-.08356,1.53023-.33865,2.02644,1.08801-.26955,2.50592-.81004,3-2,.40164-.96732-.0845-1.69591,0-3,.06265-.96712.44611-2.35789,2-4-.86234.19301-3.60355.90285-5,3Z"/>
      <path class="e" d="m3.01131,5.24883c-.0014.00916-.00351.02309-.0061.04002-.32398,2.10853-.71527,2.43562-.61696,3.06027.13734.87265,1.07466.94068,1.67919,1.9573.39333.66147.44589,1.37265.41707,1.90829.12001-.14589,1.57127-1.97337.88091-4.23491-.55344-1.81301-2.08437-2.59822-2.35411-2.73097Z"/>
      <path class="d" d="m4.01599,39.70814c2.10019,5.34128,10.44095,5.89627,12,6,4.54782.30261,11.02936-.84515,12-4,.38867-1.26328-.32654-2.13245,0-5,.20087-1.76398.66724-3.15387,1-4-3.19388.7168-4.55179.2027-5.16135-.52646-1.46683-1.75464,1.24969-4.95219,0-7.99998-.9473-2.31029-3.67719-3.41914-6-4,.09885,1.27885.09372,3.55185-1,6-.4935,1.10466-2.49078,5.57527-5.83865,5.52644-2.11316-.03082-3.64307-1.84586-4.16135-2.52646-.68463.62717-2.31152,2.28635-3,5-.13678.53906-.78894,3.10968.16135,5.52646Z"/>
    </g>
  </g>
</svg>