<?xml version="1.0" encoding="UTF-8"?>
<svg id="b" data-name="Layer 2" xmlns="http://www.w3.org/2000/svg" viewBox="0 0 49.77544 50.57702">
  <defs>
    <style>
      .d {
        fill: #f1d694;
      }

      .e {
        fill: #bf681b;
        stroke: #000;
        stroke-miterlimit: 10;
      }
    </style>
  </defs>
  <g id="c" data-name="Layer 1">
    <g>
      <path class="e" d="m.55589,35.06297c.06302,1.68536.39969,4.37714,2,7,5.03674,8.25516,17.85281,8.06238,22,8,6.32889-.09518,11.06741-1.88953,14-3,1.50958-.57162,2.71631-1.12961,4-2,3.27768-2.22235,5.07098-5.13452,6-7-1.10596.67288-2.44046,1.37613-4,2-1.06714.42688-2.07654.75131-3,1,.78638-.8414,4.01154-4.48218,4-10-.00836-4.00488-1.71738-6.89014-2.48386-8.03226-.27133,2.92899-2.18488,4.96466-4,5-2.01041.03912-3.48911-2.38367-4-4-.86487-2.73615.85208-3.767.13303-5.84903-1.19455-3.45886-6.59891-2.4137-8-6-.79456-2.03378.07462-4.43915,1-7,.62411-1.72711,1.39331-3.07288,2-4-2.53778,1.16858-6.11963,3.28949-9,7-1.40991,1.81625-2.35617,3.03525-3,5-.66669,2.03452-.61594,3.66895-2,6-.56149.94568-1.23648,2.05511-2,2-.87582-.0632-1.64758-1.64279-2-4-1.56903,1.74014-4.81317,5.81876-6,12-.91345,4.75748-.2117,8.6954.35083,10.88129-.89474-.48584-1.92807-1.1355-3-2-1.28882-1.0394-2.27237-2.09811-3-3Z"/>
      <path class="e" d="m39.04484,6.99307c-.42322.6356-.98955,1.48612-.83439,2.48994.1631,1.05508.98716,1.39893,1.26165,2.5233.2423.99254-.10542,1.93061-.42726,2.55666,1.37269-.34007,3.16159-1.02199,3.78495-2.5233.50673-1.22041-.10661-2.13964,0-3.78495.07905-1.22016.56283-2.97484,2.5233-5.04659-1.08796.24351-4.54641,1.13908-6.30824,3.78495Z"/>
      <path class="e" d="m7.36139,5.24935c-.00163.01067-.00408.0269-.00711.04662-.37746,2.4566-.83334,2.83768-.71881,3.56544.16001,1.0167,1.25206,1.09596,1.95638,2.2804.45826.77066.5195,1.59924.48592,2.22329.13982-.16997,1.83065-2.29912,1.02633-4.93398-.6448-2.11229-2.42844-3.02711-2.74271-3.18178Z"/>
      <path class="d" d="m10.05589,40.56297c2.97473,6.9144,11.29425,7.92566,12,8,.34662.03653,1.47421.14258,3,0,6.15076-.57477,11.92706-4.55054,15-10,.87949-1.55963,2.33084-4.64679,2.51614-9.03226-.29565.4744-1.55386,2.37311-4,3-2.63226.67459-5.14066-.50784-6.51614-1.96774-1.4826-1.57358-1.2272-3.02188-2-5-.82809-2.11969-2.81564-4.7934-8-7,1.62378,2.83005,1.63745,6.28461,0,9-2.19257,3.63593-6.23224,4.10049-6.68951,4.14517-2.58109.2522-4.55261-.71979-5.31049-1.14517-.46088,1.20822-1.93079,5.51215,0,10Z"/>
    </g>
  </g>
</svg>