<?xml version="1.0" encoding="UTF-8"?>
<svg id="b" data-name="Layer 2" xmlns="http://www.w3.org/2000/svg" viewBox="0 0 45.09675 45.09675">
  <defs>
    <style>
      .d {
        fill: #fff1ba;
        stroke: #000;
        stroke-miterlimit: 10;
      }
    </style>
  </defs>
  <g id="c" data-name="Layer 1">
    <g>
      <polygon class="d" points="30.31719 15.10973 44.05498 23.01528 29.98705 30.31719 22.08147 44.05498 14.77959 29.98702 1.04177 22.08147 15.10973 14.77956 23.01531 1.04177 30.31719 15.10973"/>
      <g>
        <path class="d" d="m10.84572,11.98034c-.04401-.61136-.33118-3.73645-3-6-2.005-1.70053-4.21539-1.94885-5-2,.05115.78461.29947,2.995,2,5,2.26355,2.66882,5.38867,2.95602,6,3Z"/>
        <path class="d" d="m42.25103,41.1164c-.04401-.61136-.33118-3.73645-3-6-2.005-1.70053-4.21539-1.94885-5-2,.05115.78461.29947,2.995,2,5,2.26355,2.66882,5.38867,2.95602,6,3Z"/>
        <path class="d" d="m2.84572,41.1164c.04401-.61136.33118-3.73645,3-6,2.005-1.70053,4.21539-1.94885,5-2-.05115.78461-.29947,2.995-2,5-2.26355,2.66882-5.38867,2.95602-6,3Z"/>
        <path class="d" d="m34.25103,11.98034c.04401-.61136.33118-3.73645,3-6,2.005-1.70053,4.21539-1.94885,5-2-.05115.78461-.29947,2.995-2,5-2.26355,2.66882-5.38867,2.95602-6,3Z"/>
      </g>
    </g>
  </g>
</svg>