<?xml version="1.0" encoding="UTF-8"?>
<svg id="b" data-name="Layer 2" xmlns="http://www.w3.org/2000/svg" viewBox="0 0 55.92512 52.29147">
  <defs>
    <style>
      .d {
        fill: #fff1ba;
        stroke: #000;
        stroke-miterlimit: 10;
      }
    </style>
  </defs>
  <g id="c" data-name="Layer 1">
    <g>
      <path class="d" d="m50.91783,12.58032c-3.88-4.97742-20.44489-1.28113-30.8127,7.08957-8.30518,6.70003-15.40183,18.62853-11.69447,23.277,3.7891,4.75234,18.29137,1.22919,27.63238-5.05535,10.4678-7.05497,18.67299-20.42902,14.87479-25.31123Zm-16.29233,22.13434c-7.61487,5.32632-19.16254,8.53906-21.90781,5.12457-1.47061-1.82913.68613-6.54105,1.37689-8.12735.1741-.39978.82962-1.86646,2.13205-3.68762.00006-.00009,2.5744-3.59964,6.5863-6.29414,5.5152-3.70416,20.68951-10.07855,23.78876-6.0508,2.68799,3.4933-4.03864,13.48343-11.9762,19.03534Z"/>
      <path class="d" d="m32.98902,32.21009c-.08307-.69382-.25647-1.5813-.62695-2.56244-.30652-.81177-.66949-1.47986-1-2,.54077-.37549,1.31592-1.01212,2-2,.51727-.74704.81952-1.45953,1-2-.8894.21655-1.90826.53215-3,1-.74701.32013-1.41394.6626-2,1-.58606-.3374-1.25299-.67987-2-1-1.09174-.46785-2.1106-.78345-3-1,.01373.57278.12799,1.82962,1,3,.33038.44339.69012.76788,1,1-1.00946.71564-1.62201,1.44724-2,2-.4729.69159-.96948,1.67474-1.87854,3.47458,0,.00006-.00153.00296-.00153.00302.58777.03821,1.67029.02859,2.88007-.4776,1.591-.66571,2.46936-1.80002,2.80969-2.29584.47137.39008,1.20044.90393,2.19031,1.29584,1.05621.41815,1.99628.53397,2.62695.56244Z"/>
      <path class="d" d="m17.98902,16.21009c-.04401-.61136-.33118-3.73645-3-6-2.005-1.70053-4.21539-1.94885-5-2,.05115.78461.29947,2.995,2,5,2.26355,2.66882,5.38867,2.95602,6,3Z"/>
      <path class="d" d="m46.98902,47.21009c-.04401-.61136-.33118-3.73645-3-6-2.005-1.70053-4.21539-1.94885-5-2,.05115.78461.29947,2.995,2,5,2.26355,2.66882,5.38867,2.95602,6,3Z"/>
      <path class="d" d="m11.27033,22.23684c-.28891-.54058-1.8226-3.27855-5.18145-4.26058-2.5234-.73777-4.64363-.06538-5.38118.20709.36592.69594,1.492,2.61412,3.86112,3.7539,3.1535,1.51713,6.12517.50812,6.70151.29959Z"/>
      <path class="d" d="m55.20156,37.75691c-.36975-.59271-1.95148-2.97751-5.11334-3.86642-2.52179-.70895-4.6236-.06577-5.38116.20709.30273.61487,1.40234,2.65521,3.86108,3.75391,3.21179,1.43521,6.17737.11728,6.63342-.09457Z"/>
      <path class="d" d="m35.20156,51.75691c.40778.05728.75623.03336,1,0,.11536-.79391.20746-2.19412-.30713-3.80176-.79553-2.48529-2.52917-3.86713-3.18726-4.3407-1.28687,1.54663-1.66748,3.60007-.94519,5.30157.54272,1.27847,1.8161,2.61276,3.43958,2.84088Z"/>
      <path class="d" d="m25.20156,10.75691c.26068-.49223,1.43195-2.83118.61578-5.71678-.74902-2.6483-2.67621-4.00401-3.18726-4.34068-.27448.43979-1.53088,2.55687-.94513,5.30156.65894,3.08746,3.13,4.53767,3.5166,4.75591Z"/>
    </g>
  </g>
</svg>