<?xml version="1.0" encoding="UTF-8"?>
<svg id="b" data-name="Layer 2" xmlns="http://www.w3.org/2000/svg" viewBox="0 0 47.85748 46.2511">
  <defs>
    <style>
      .d {
        fill: #fff;
      }

      .e {
        fill: #82a8d8;
        stroke: #000;
        stroke-miterlimit: 10;
      }
    </style>
  </defs>
  <g id="c" data-name="Layer 1">
    <g>
      <path class="e" d="m29.59546,18.15298c.68435,1.76956,1.95908,3.94193,4.34514,6.21008-4.34029-1.29016-7.54669-1.15903-9.77271-.69025-.50164,1.60785-.68166,3.74377-.17348,6.61288-.31654-.41174-.80072-1.02826-1.4413-1.759-1.16105-1.33441-2.03345-2.32867-2.82539-3.05734-2.86313,1.90134-5.16676,5.17838-10.79847,11.19138-3.17165,3.38489-5.87849,6.01031-7.58293,7.62561.98931-2.41196,2.67792-6.21408,5.30712-10.68439,2.60633-4.42575,4.65363-7.01932,5.8241-9.26999-.40968.05927-.86604.12433-1.37109.17874-2.97443.31952-5.39036.25217-6.90923.15692,1.18941-.64908,2.86787-1.63458,4.75639-2.98871,1.01848-.72806,2.95605-2.22195,4.25023-3.47717-.64419-2.20894-2.43-4.98615-6.84589-8.10475.71103.1539,1.80043.37773,3.1356.5961,2.88281.4688,4.90424.79401,6.54871.83189.07758-1.66371-.13647-3.15756-.32143-4.11198,1.27882,1.59541,2.58846,2.75261,3.82923,3.58418,1.79923-.69978,2.27316-1.91991,5.50505-4.74417,2.75307-2.40561,5.29646-4.05832,6.95623-5.0415-.61745,1.43845-1.41854,3.53458-2.08461,6.10689-.57211,2.18465-1.05556,4.09099-1.13249,5.98857,2.48168-.03224,4.96336-.06447,7.44504-.09671-.61511.83365-1.5826,1.95436-3,3-1.3726,1.01259-2.68494,1.59908-3.64381,1.94272Z"/>
      <path class="d" d="m27.20113,17.22601c-.03014.01343-.26993.11947-.59023.27684-.18049.08868-.34531.17385-.49622.2557.08035.18562.17008.38901.28092.58975.45422.89002,1.14244,1.87714,2.17836,2.89679-1.86941-.46807-3.42299-.58419-4.68874-.51521-.25611.01288-.50439.03109-.73706.06002-.18556.40798-.35711.87095-.49117,1.40501-.1791.74789-.28481,1.62546-.25688,2.6568-.31083-.4851-.85934-1.21197-1.7228-1.88074-.40281-.30329-.86827-.59249-1.41447-.84009-.17956.11062-.35756.23372-.5262.37456-1.56613,1.22313-2.92141,3.22135-6.13446,7.03422-1.99658,2.36819-3.68523,4.21855-4.70842,5.31744.77056-1.28831,2.04696-3.40294,3.73063-5.98464,2.16426-3.32288,3.56784-5.1631,4.33553-6.58985.17046-.29882.30722-.58081.40952-.85219-.49176-.03988-.95617-.03264-1.39244-.02888-.07831.00341-.1574.00062-.2287.00316-1.71594.01766-3.11525.33669-4.02733.60148.72579-.32366,1.70956-.81822,2.71793-1.51768,0,0,.93546-.6526,1.81108-1.55645.1585-.16483.31621-.33586.46614-.51223.23151-.26853.4317-.55841.61705-.85276-.09431-.24068-.21212-.49735-.35264-.76384-.6151-1.14764-1.72012-2.4931-3.66219-3.94906,1.93797.67408,3.50931.93308,4.76779.97861.22947.00302.44405.00158.64379-.00429.07505-.37531.12732-.7036.15836-.97246.0476-.36557.06684-.61401.07014-.70277.18994.20354.40259.41689.63013.6347.2838.26759.59032.54499.92348.80644.59001-.14904,1.03126-.34267,1.34014-.50725.02741-.00973.05409-.02568.08074-.04158.39512-.21948.83029-.51964,3.54936-3.12272,1.47722-1.4203,2.68305-2.60496,3.51076-3.43342-.4982.94525-1.12399,2.30392-1.65171,3.99111-.40405,1.29953-.78293,2.5139-.85406,3.78468-.02001.24225-.02514.48899-.01542.74018.00828.18194.02355.41981.05908.70565.43946-.06176.88025-.12494,1.32233-.18958,1.37522-.20107,2.73465-.41207,4.0781-.63218-2.41146,1.5869-3.41576,2.19671-3.73025,2.33675Z"/>
      <g>
        <path class="e" d="m9.50724,43.2325c1.42723-.14511,3.52148-.42261,6-1,5.97702-1.39236,16.37601-3.81485,21.73439-12.01553,6.03915-9.24255,2.31454-20.68098,1.63243-22.67032,5.95609,4.4758,8.86377,10.66205,8.44354,16.74191-.33231,4.80774-2.68512,8.14859-3.54623,9.35031-9.2339,12.88641-32.52359,9.84277-34.26413,9.59363Z"/>
        <path class="d" d="m42.13894,12.67954c.55567,2.40007,1.16621,6.57604-.04658,11.50727-.00001.00008-.8586,3.49105-2.56105,6.39016-5.41263,9.21712-19.49939,11.73815-21.33475,12.04449,3.47383-.0484,8.1235-.59222,13.05949-2.63417,3.18308-1.3168,7.05649-2.91919,10.11421-6.84387,3.04691-3.91079,3.56021-7.91507,3.6779-9.41032.43746-5.55824-1.97926-9.6421-2.90922-11.05356Z"/>
      </g>
    </g>
  </g>
</svg>