<?xml version="1.0" encoding="UTF-8"?>
<svg id="b" data-name="Layer 2" xmlns="http://www.w3.org/2000/svg" viewBox="0 0 48.81941 51.41197">
  <defs>
    <style>
      .d {
        fill: #fff;
      }

      .e {
        fill: #82a8d8;
        stroke: #000;
        stroke-miterlimit: 10;
      }
    </style>
  </defs>
  <g id="c" data-name="Layer 1">
    <g>
      <g>
        <path class="e" d="m36.98666,50.17771c.22656-.83766,1.03785-3.41609,3.58999-5.40978.68383-.53419,2.87996-2.11019,6.11787-2.17384-1.49371-.7115-3.44004-1.83469-5.40979-3.59001-2.60482-2.32118-4.16507-4.78056-5.05576-6.47191-.20221.98348-.68849,2.61052-1.97202,4.14587-2.8014,3.35093-7.03484,3.43512-7.73583,3.43778,1.88604,1.08418,4.29837,2.74032,6.67372,5.20797,1.64769,1.71177,2.88057,3.40156,3.79182,4.85392Z"/>
        <path class="d" d="m36.56586,44.87708c.26352-.47453.64273-1.04644,1.18345-1.62047.9273-.98441,1.91686-1.53683,2.58541-1.83898-.47453-.26352-1.04646-.64273-1.62047-1.18345-.98441-.9273-1.53683-1.91688-1.83898-2.58541-.30532.49821-.6931,1.05225-1.18345,1.62047-.75542.87539-1.52722,1.52137-2.17653,1.98601.38217.27628.79619.61742,1.2116,1.03643.90436.91222,1.4778,1.85305,1.83898,2.58541Z"/>
      </g>
      <g>
        <path class="e" d="m6.43251,14.26656c-.27917.47066-.92026,1.40808-2.10995,2.12527-1.20209.72466-2.34288.84985-2.89005.87473.84766.62529,1.9635,1.59312,3,3,.83559,1.13417,1.37375,2.21996,1.72263,3.08057.15205-.52542.47791-1.3849,1.20195-2.21869,1.12955-1.30077,2.52138-1.72501,3.07542-1.86188-.61916-.52023-1.31093-1.17964-2-2-.9064-1.07912-1.54823-2.12732-2-3Z"/>
        <path class="d" d="m6.4489,16.49198c-.15758.25244-.38009.55421-.68814.85068-.52829.50843-1.073.77496-1.43829.91564.24101.16505.52912.39812.81217.72078.48541.55335.73987,1.1239.87418,1.50651.1806-.26388.40696-.55541.68814-.85068.43317-.45489.86625-.78199,1.22757-1.01349-.19165-.16842-.39767-.37407-.60145-.62292-.44363-.54178-.71108-1.08616-.87418-1.50651Z"/>
      </g>
      <g>
        <path class="e" d="m35.94944,21.86902c.68435,1.76956,1.95908,3.94193,4.34514,6.21008-4.34029-1.29016-7.54669-1.15903-9.77271-.69025-.50164,1.60785-.68166,3.74377-.17348,6.61288-.31654-.41174-.80072-1.02826-1.4413-1.759-1.16105-1.33441-2.03345-2.32867-2.82539-3.05734-2.86313,1.90134-5.16676,5.17838-10.79847,11.19138-3.17165,3.38489-5.87849,6.01031-7.58293,7.62561.98931-2.41196,2.67792-6.21408,5.30712-10.68439,2.60633-4.42575,4.65363-7.01932,5.8241-9.26999-.40968.05927-.86604.12433-1.37109.17874-2.97443.31952-5.39036.25217-6.90923.15692,1.18941-.64908,2.86787-1.63458,4.75639-2.98871,1.01848-.72806,2.95605-2.22195,4.25023-3.47717-.64419-2.20894-2.43-4.98615-6.84589-8.10475.71103.1539,1.80043.37773,3.1356.5961,2.88281.4688,4.90424.79401,6.54871.83189.07758-1.66371-.13647-3.15756-.32143-4.11198,1.27882,1.59541,2.58846,2.75261,3.82923,3.58418,1.79923-.69978,2.27316-1.91991,5.50505-4.74417,2.75307-2.40561,5.29646-4.05832,6.95623-5.0415-.61745,1.43845-1.41854,3.53458-2.08461,6.10689-.57211,2.18465-1.05556,4.09099-1.13249,5.98857,2.48168-.03224,4.96336-.06447,7.44504-.09671-.61511.83365-1.5826,1.95436-3,3-1.3726,1.01259-2.68494,1.59908-3.64381,1.94272Z"/>
        <path class="d" d="m33.55512,20.94205c-.03014.01343-.26993.11947-.59023.27684-.18049.08868-.34531.17385-.49622.2557.08035.18562.17008.38901.28092.58975.45422.89002,1.14244,1.87714,2.17836,2.89679-1.86941-.46807-3.42299-.58419-4.68874-.51521-.25611.01288-.50439.03109-.73706.06002-.18556.40798-.35711.87095-.49117,1.40501-.1791.74789-.28481,1.62546-.25688,2.6568-.31083-.4851-.85934-1.21197-1.7228-1.88074-.40281-.30329-.86827-.59249-1.41447-.84009-.17956.11062-.35756.23372-.5262.37456-1.56613,1.22313-2.92141,3.22135-6.13446,7.03422-1.99658,2.36819-3.68523,4.21855-4.70842,5.31744.77056-1.28831,2.04696-3.40294,3.73063-5.98464,2.16426-3.32288,3.56784-5.1631,4.33553-6.58985.17046-.29882.30722-.58081.40952-.85219-.49176-.03988-.95617-.03264-1.39244-.02888-.07831.00341-.1574.00062-.2287.00316-1.71594.01766-3.11525.33669-4.02733.60148.72579-.32366,1.70956-.81822,2.71793-1.51768,0,0,.93546-.6526,1.81108-1.55645.1585-.16483.31621-.33586.46614-.51223.23151-.26853.4317-.55841.61705-.85276-.09431-.24068-.21212-.49735-.35264-.76384-.6151-1.14764-1.72012-2.4931-3.66219-3.94906,1.93797.67408,3.50931.93308,4.76779.97861.22947.00302.44405.00158.64379-.00429.07505-.37531.12732-.7036.15836-.97246.0476-.36557.06684-.61401.07014-.70277.18994.20354.40259.41689.63013.6347.2838.26759.59032.54499.92348.80644.59001-.14904,1.03126-.34267,1.34014-.50725.02741-.00973.05409-.02568.08074-.04158.39512-.21948.83029-.51964,3.54936-3.12272,1.47722-1.4203,2.68305-2.60496,3.51076-3.43342-.4982.94525-1.12399,2.30392-1.65171,3.99111-.40405,1.29953-.78293,2.5139-.85406,3.78468-.02001.24225-.02514.48899-.01542.74018.00828.18194.02355.41981.05908.70565.43946-.06176.88025-.12494,1.32233-.18958,1.37522-.20107,2.73465-.41207,4.0781-.63218-2.41146,1.5869-3.41576,2.19671-3.73025,2.33675Z"/>
      </g>
      <g>
        <path class="e" d="m20.30761.93157c-.08965.70692-.32336,1.81732-1,3-.97395,1.70236-2.32486,2.60931-3,3,1.278-.17207,2.99991-.27022,5,0,1.60049.21623,2.95036.6104,4,1-.25513-.62679-.60472-1.71361-.58733-3.09982.01608-1.28172.33926-2.29094.58733-2.90018-.53291.14223-1.66183.3642-3,0-.92966-.25302-1.60172-.69136-2-1Z"/>
        <path class="d" d="m21.00457,2.91372c.03975.18681.15266.83054-.19696,1.51785-.31557.62039-.82079.90831-1,1,.3394-.09264,1.09714-.24951,2,0,.72136.19936,1.21481.56953,1.47182.79388-.48758-.49991-.67415-1.19252-.47182-1.79388.1703-.50618.55885-.77739.70512-.86896-.25513-.00238-.54546-.02357-.86229-.07893-.68979-.12056-1.24783-.35815-1.64587-.56996Z"/>
      </g>
    </g>
  </g>
</svg>