<?xml version="1.0" encoding="UTF-8"?>
<svg id="b" data-name="Layer 2" xmlns="http://www.w3.org/2000/svg" viewBox="0 0 57.20167 50.76205">
  <defs>
    <style>
      .d {
        fill: #666260;
      }

      .d, .e, .f {
        stroke: #000;
        stroke-miterlimit: 10;
      }

      .e {
        fill: #fff;
      }

      .f {
        fill: #473229;
      }
    </style>
  </defs>
  <g id="c" data-name="Layer 1">
    <g>
      <path class="e" d="m33.51852,5.97944c7.66052-1.76811,15.32096-3.53624,22.98148-5.30435-1.80244,6.63043-3.60497,13.26087-5.40741,19.8913-.45059-1.76811-.90126-3.53624-1.35185-5.30435l-8.11111,15.91304c-.45059-5.30435-.90126-10.6087-1.35185-15.91304h-20.27778c6.75926-2.21015,13.51852-4.42028,20.27778-6.63043-2.25311-.88406-4.50615-1.76811-6.75926-2.65217Z"/>
      <g>
        <path class="d" d="m51.5,5.26205c-12.33331,8.33333-24.66669,16.66667-37,25-1.33331,3-2.66669,6-4,9l3,3c3.33331-1.33334,6.66669-2.66666,10-4,9.33331-11,18.66669-22,28-33Z"/>
        <path class="f" d="m8.5,38.26205c1.82886-1.57278,4.83527-1.01343,6,1,.91907,1.58884.51477,3.77792-1,5-1.47241,1.18793-3.62866,1.16739-5,0-1.74384-1.48453-1.79095-4.45981,0-6Z"/>
        <path class="f" d="m.5,48.26205v2h2c2.83331-2.46667,5.66669-4.93332,8.5-7.39999.01367-.07611.1557-.95544-.5-1.60001-.57288-.56314-1.30969-.50958-1.41669-.5-2.86108,2.5-5.72223,5-8.58331,7.5Z"/>
      </g>
    </g>
  </g>
</svg>