<?xml version="1.0" encoding="UTF-8"?>
<svg id="b" data-name="Layer 2" xmlns="http://www.w3.org/2000/svg" viewBox="0 0 50.91313 53.11677">
  <defs>
    <style>
      .d {
        fill: #fff1ba;
        stroke: #000;
        stroke-miterlimit: 10;
      }
    </style>
  </defs>
  <g id="c" data-name="Layer 1">
    <g>
      <path class="d" d="m47.52218,8.99452c-3.88-4.97742-20.44489-1.28113-30.8127,7.08957-8.30518,6.70003-15.40183,18.62853-11.69447,23.277,3.7891,4.75234,18.29137,1.22919,27.63238-5.05535,10.4678-7.05497,18.67299-20.42902,14.87479-25.31123Zm-16.29233,22.13434c-7.61487,5.32632-19.16254,8.53906-21.90781,5.12457-1.47061-1.82913.68613-6.54105,1.37689-8.12735.1741-.39978.82962-1.86646,2.13205-3.68762.00006-.00009,2.5744-3.59964,6.5863-6.29414,5.5152-3.70416,20.68951-10.07855,23.78876-6.0508,2.68799,3.4933-4.03864,13.48343-11.9762,19.03534Z"/>
      <path class="d" d="m1.38577,10.54573c.73553.29892,1.89877.88354,3,2,1.5238,1.54483,2.08521,3.25247,2.298,4.07953.35522-.94583,1.11676-2.58267,2.702-4.07953,1.09357-1.03259,2.20291-1.64331,3-2-.8671-.36673-2.55109-1.21701-4-3-1.26071-1.55139-1.77695-3.11182-2-4-.02478.70074-.19543,3.02753-2,5-1.08328,1.18408-2.29999,1.74277-3,2Z"/>
      <path class="d" d="m49.6343,38.42729c-.67319.24713-1.89902.80185-3,2-1.51062,1.64395-1.85516,3.48605-1.95053,4.19797-.46893-1.0441-1.37399-2.68829-3.04947-4.19797-1.08408-.97678-2.16321-1.60223-3-2,.66949-.21222,2.67603-.94467,4-3,.69403-1.07742.9473-2.12527,1.04947-2.80203.51233.99118,1.41904,2.44177,2.95053,3.80203,1.0871.96555,2.16089,1.59412,3,2Z"/>
      <path class="d" d="m17.68377,4.9271c.30487.24655.65625.57455,1,1,.50406.62381.81143,1.23389,1,1.69815.45813-.62659.92194-1.25494,1.39148-1.88498.20285-.27219.4057-.54324.60852-.81317-.30185-.23502-.65897-.56116-1-1-.58487-.75259-.86215-1.50165-1-2-.13785.49835-.41513,1.24741-1,2-.34103.43884-.69815.76498-1,1Z"/>
      <path class="d" d="m29.68377,49.9271c.4512.61087.77161,1.19833,1,1.69815.13406-.52002.51114-1.6817,1.58163-2.66971.66647-.61511,1.35455-.93478,1.81052-1.10181-.52328-.20206-1.53958-.67047-2.414-1.65274-.76086-.85464-1.07242-1.71429-1.20703-2.20361-.10434.48923-.31537,1.1893-.77112,1.92972-.66351,1.07797-1.50998,1.69595-2,2,.5777.4277,1.31586,1.07376,2,2Z"/>
    </g>
  </g>
</svg>