<?xml version="1.0" encoding="UTF-8"?>
<svg id="b" data-name="Layer 2" xmlns="http://www.w3.org/2000/svg" viewBox="0 0 57.02912 56.87931">
  <defs>
    <style>
      .d {
        fill: #666260;
      }

      .d, .e {
        stroke: #000;
        stroke-miterlimit: 10;
      }

      .e {
        fill: #473229;
      }
    </style>
  </defs>
  <g id="c" data-name="Layer 1">
    <g>
      <path class="d" d="m48.10829,3.87931c2.66669-1,5.33331-2,8-3-1,2.33333-2,4.66667-3,7-12.33331,13.33333-24.66669,26.66666-37,40-2.33331-2.33334-4.66669-4.66666-7-7C22.10829,28.54597,35.10829,16.21264,48.10829,3.87931Z"/>
      <path class="d" d="m1.60829,34.37931c2.33331,4.66666,4.66669,9.33334,7,14,4.33331,1.66666,8.66669,3.33334,13,5-2.33331-2.33334-4.66669-4.66666-7-7l.6687-3.34369c.11041-.55209.22089-1.10422.3313-1.65631-1.66669.33334-3.33331.66666-5,1-3-2.66666-6-5.33334-9-8Z"/>
      <path class="e" d="m8.69917,45.37931h3.40912v3c-3.16669,2.66666-6.33331,5.33334-9.5,8H.60829v-2l8.09088-9Z"/>
    </g>
  </g>
</svg>