<?xml version="1.0" encoding="UTF-8"?>
<svg id="b" data-name="Layer 2" xmlns="http://www.w3.org/2000/svg" viewBox="0 0 54.77849 55.38241">
  <defs>
    <style>
      .d {
        fill: #6a5600;
      }

      .d, .e, .f, .g {
        stroke: #000;
        stroke-miterlimit: 10;
      }

      .e {
        fill: #666260;
      }

      .f {
        fill: #fff;
      }

      .g {
        fill: #473229;
      }
    </style>
  </defs>
  <g id="c" data-name="Layer 1">
    <g>
      <path class="f" d="m11.16479,47.36781c1.58752-7.647,1.60516-13.90802,1.33521-18.13736-.57269-8.97173-2.58472-11.07524-4-12-1.98163-1.29482-4.28918-1.25623-5.8045-1.05804,3.79431-3.52095,12.94891-11.04463,26.95837-13.72569,10.40186-1.99065,19.02393-.45882,23.84613.78374-.08734,2.47728-.48553,6.05412-2,10-2.03229,5.29509-5.62811,10.09129-19,20-5.40344,4.004-12.54974,8.95142-21.33521,14.13736Z"/>
      <path class="e" d="m35.5,33.23045c12.84534-9.26505,16.46527-13.47093,18-19,1.32129-4.76016.71069-9.1091,0-12-.59149,2.76056-1.71204,6.70549-4,11-1.94678,3.65414-5.27936,8.57605-16,17-5.4444,4.27802-13.09735,9.69745-23,15,.66669,1,1.33331,2,2,3,9.46222-5.56314,17.1781-10.80081,23-15Z"/>
      <path class="d" d="m6.5,39.23045c1.93292-1.10281,3.89368-.05902,4,0v3c1.66669,2.66666,3.33331,5.33334,5,8,1,.66666,2,1.33334,3,2-.03333.31195-.18085,1.311-1,2-1.01593.85449-2.65106.88394-4,0v-2l-6-9c-1-.33334-2-.66666-3-1,.02863-.21289.30524-2.03308,2-3Z"/>
      <path class="g" d="m.5,52.23045v2h2l9-6c-.66669-1-1.33331-2-2-3-3,2.33334-6,4.66666-9,7Z"/>
    </g>
  </g>
</svg>