<?xml version="1.0" encoding="UTF-8"?>
<svg id="b" data-name="Layer 2" xmlns="http://www.w3.org/2000/svg" viewBox="0 0 49.98076 51.2202">
  <defs>
    <style>
      .d {
        fill: #ffc83d;
        stroke: #000;
        stroke-miterlimit: 10;
      }
    </style>
  </defs>
  <g id="c" data-name="Layer 1">
    <g>
      <path class="d" d="m31.38335,2.98923c-2,7.33333-4,14.66667-6,22,4.66666-.33334,9.33334-.66667,14-1-7,8.33334-14,16.66666-21,25,1.66666-5.33334,3.33334-10.66666,5-16-4,.33334-8,.66666-12,1,6.66666-10.33333,13.33334-20.66667,20-31Z"/>
      <path class="d" d="m6.56077,46.42472c.66666-1.66666,1.33334-3.33334,2-5-2.35898-1.16666-4.71796-2.33334-7.07693-3.5-.3205-2.70001-.64102-5.39999-.96152-8.10001,1.28204-1.49997,2.56409-3,3.84613-4.5,2.39743-2.3,4.79489-4.59999,7.19232-6.89999v-9c1.33334,3,2.66666,6,4,9-2.76923,2.90001-5.53845,5.80002-8.30768,8.70001l-2.88464,2.69998v7.20001c3.06412.79999,6.1282,1.60001,9.19232,2.39999l-7,7Z"/>
      <path class="d" d="m44.38335,18.98923c-2.66666-.33333-5.33334-.66667-8-1V7.98923l3,3,2-1c1.66666.66667,3.33334,1.33333,5,2h-5c-.66666.66667-1.33334,1.33333-2,2v2h7c.32352.53922.64706,1.07843.97058,1.61765.67648,1.12746,1.35294,2.2549,2.02942,3.38235-1.66666,2.33333-3.33334,4.66666-5,7-2,3.33334-4,6.66666-6,10,1.33334,3,2.66666,6,4,9-2.33334-2.66666-4.66666-5.33334-7-8,2-3.33334,4-6.66666,6-10,1.66666-2.33334,3.33334-4.66667,5-7-.66666-1-1.33334-2-2-3Z"/>
    </g>
  </g>
</svg>