<?xml version="1.0" encoding="UTF-8"?>
<svg id="b" data-name="Layer 2" xmlns="http://www.w3.org/2000/svg" viewBox="0 0 56.72362 47.3636">
  <defs>
    <style>
      .d {
        fill: #666260;
      }

      .d, .e, .f {
        stroke: #000;
        stroke-miterlimit: 10;
      }

      .e {
        fill: #fff;
      }

      .f {
        fill: #473229;
      }
    </style>
  </defs>
  <g id="c" data-name="Layer 1">
    <g>
      <path class="e" d="m50.02204,24.04543c1.87708,1.37723,3.75409,2.75439,5.63116,4.13162-2.73718.92746-5.47443,1.85492-8.21161,2.78238.71027,3.68991,1.42047,7.37985,2.13074,11.06976-2.79688-1.35315-5.59381-2.70627-8.39069-4.05939-1.466,2.6058-2.93188,5.21158-4.39783,7.81738-1.27875-1.96338-2.5575-3.92682-3.83624-5.89023-2.09412,2.0517-4.18817,4.10342-6.28229,6.15512.23944-2.5737.47888-5.14737.71832-7.72107-2.43799.63437-4.8761,1.26871-7.31415,1.90308,2.28064-2.07803,4.56134-4.15607,6.84198-6.2341-1.33331-1.33334-2.66669-2.66666-4-4,2-1.33334,4-2.66666,6-4-1.33331-2.33334-2.66669-4.66666-4-7,2.24152.20378,4.48297.40755,6.72449.61133-.24152-3.20378-.48297-6.40755-.72449-9.61133,1.90277,1.49181,3.80548,2.98363,5.70825,4.47543,1.09723-2.15848,2.19452-4.31696,3.29175-6.47543,1.33331,2.33333,2.66669,4.66667,4,7,2.22406-1.55408,4.44818-3.10814,6.67224-4.66222-.84521,2.87482-1.69049,5.74965-2.53571,8.62447,1.84723.23691,3.6944.47385,5.54163.71074-1.18921,1.4575-2.37836,2.91493-3.56757,4.37245Z"/>
      <path class="f" d="m.51604,40.41196l.36714,4.26946,3.57785-.30767c7.73641-7.83365,15.47281-15.66733,23.20922-23.50098-2.14069-1.608-4.28131-3.21605-6.422-4.82405C14.33754,24.16981,7.42675,32.29089.51604,40.41196Z"/>
      <path class="d" d="m31.6197,33.47543c.44324.37564,1.11505.828,2,1,2.75073.53467,5.21515-2.09525,7-4,.7757-.82779,5.57611-5.95065,4-9-.1369-.26486-.29358-.45923-.40302-.58081-7.52051-6.4003-15.04095-12.80058-22.56146-19.20087-.47949-.38304-1.19952-.84633-2.14874-1.06671-3.04565-.70717-5.80371,1.70105-7.52045,3.20015-1.67126,1.45935-4.92889,4.30386-4.29742,7.467.18646.93407.66272,1.64886,1.07434,2.13342,7.6189,6.68262,15.23785,13.3652,22.85675,20.04782Z"/>
    </g>
  </g>
</svg>