<?xml version="1.0" encoding="UTF-8"?>
<svg id="a" data-name="Layer 1" xmlns="http://www.w3.org/2000/svg" viewBox="0 0 1920 1080">
  <defs>
    <style>
      .d {
        fill: #18181b;
      }

      .e {
        fill: #3f3f46;
      }
    </style>
  </defs>
  <g id="b" data-name="backcover">
    <rect class="d" width="1920" height="1080"/>
  </g>
  <path id="c" data-name="background" class="e" d="m1920,148v932H0V416c1.40997-.04004,2.83002-.08002,4.23999-.12.25-2.29004.5-4.59003.76001-6.88h2c-.25,2.26996-.51001,4.54999-.76001,6.82001,1.59003-.04004,3.17999-.08002,4.77002-.13.26001-2.29999.51001-4.59003.77002-6.89001h2c-.25,2.27997-.51001,4.54999-.76001,6.83002,1.58997-.04004,3.17999-.09003,4.76996-.13.26001-2.29999.51001-4.60004.77002-6.90002h2c-.25,2.28003-.51001,4.56-.76001,6.84003,1.59003-.04004,3.17999-.09003,4.77002-.13.26001-2.29999.51001-4.60999.77002-6.91003h2c-.25,2.28003-.51001,4.57001-.76001,6.85004,1.58997-.04004,3.17999-.09003,4.76996-.13.25-2.31.51001-4.60999.77002-6.91998h2c-.26001,2.28998-.51001,4.56995-.76001,6.85999,1.59003-.04004,3.17999-.09003,4.77002-.13.25-2.31.51001-4.62.77002-6.92999h2c-.26001,2.28998-.51001,4.57996-.76001,6.87,1.58997-.04004,3.16998-.09003,4.76001-.13.25995-2.31.51996-4.63.76996-6.94h2c-.25,2.28998-.51001,4.59003-.76001,6.88,1.59003-.04999,3.18005-.09003,4.77002-.14001.26001-2.31.52002-4.63.77002-6.94h2c-.25,2.29999-.51001,4.59003-.77002,6.89001,1.59003-.04999,3.19-.09003,4.78003-.14001.25995-2.32001.51996-4.63.76996-6.95001h2c-.25,2.30005-.51001,4.60004-.76996,6.90002,1.58997-.04999,3.19-.09003,4.77997-.14001.25-2.32001.51001-4.64001.77002-6.95996h2c-.26001,2.29999-.51001,4.60999-.77002,6.90997,1.59003-.04999,3.19-.09003,4.78003-.14001.25-2.32001.51001-4.64996.76996-6.96997h2c-.25995,2.29999-.50995,4.60999-.76996,6.90997,1.58997-.03998,3.17999-.08002,4.76996-.13.26001-2.32996.52002-4.64996.78003-6.97998h2c-.26001,2.31-.51001,4.60999-.77002,6.91998,1.59003-.03998,3.17999-.08997,4.77002-.13.26001-2.32996.52002-4.65997.77997-6.98999h2c-.25995,2.31-.50995,4.62-.76996,6.92999,1.58997-.03998,3.17999-.08997,4.76996-.13.26001-2.32996.52002-4.66998.78003-7h2c-.26001,2.31-.52002,4.63-.77002,6.94,1.59003-.03998,3.17999-.08997,4.77002-.13.26001-2.33997.52002-4.66998.77997-7.00995h2c-.25995,2.31995-.51996,4.62994-.76996,6.94995,1.58997-.03998,3.17999-.08997,4.76996-.13.26001-2.33997.52002-4.67999.78003-7.01996h2c-.26001,2.32001-.52002,4.64001-.77002,6.95996,1.59003-.04999,3.17004-.08997,4.76001-.13.26001-2.33997.52002-4.68994.78003-7.02997h2c-.26001,2.32001-.51001,4.65002-.77002,6.96997,1.59003-.04999,3.17999-.08997,4.77002-.13995.25995-2.34003.51996-4.69.77997-7.03003h2c-.26001,2.33002-.51001,4.65002-.77997,6.97998,1.58997-.04999,3.19-.08997,4.77997-.13995.26001-2.35004.52002-4.69.78003-7.04004h2c-.26001,2.33002-.51001,4.66003-.78003,6.99005,1.59003-.05005,3.19-.09003,4.78003-.14001.26001-2.35004.51996-4.70001.77997-7.04999h2c-.26001,2.32996-.51996,4.66998-.77997,7,1.58997-.05005,3.19-.09003,4.77997-.14001.26001-2.35004.52002-4.71002.78003-7.06h2c-.26001,2.33997-.52002,4.66998-.78003,7.01001.07001-.01001.13-.01001.20001-.01001l51,63c1.33002,10.66998,2.66998,21.32996,4,32,15.33002,10.32996,30.66998,20.66998,46,31,11.66998,1.66998,23.33002,3.32996,35,5,.35999-5.08002.71002-10.17004,1.07001-15.25l-2.07001-3.75c.66998-10,1.33002-20,2-30,.66998.66998,1.33002,1.32996,2,2,2-17.67004,4-35.33002,6-53-.66998-2.67004-1.33002-5.33002-2-8,1.66998,1,3.33002,2,5,3,1.33002-.33002,2.66998-.67004,4-1l5.82001-31.71002c-.94-.09998-1.88-.19-2.82001-.28998,1.33002-2.33002,2.66998-4.67004,4-7,1-.67004,2-1.33002,3-2,1.66998-5.33002,3.33002-10.67004,5-16v-3c1-3.33002,2-6.67004,3-10,.33002-.67004.66998-1.33002,1-2,.88-2.98999,1.76001-5.98004,2.64001-8.96002.45001-1.02002.90997-2.02997,1.35999-3.03998.33002-2.33002.66998-4.67004,1-7,.66998,2.66998,1.33002,5.32996,2,8v3c1,3.66998,2,7.32996,3,11,.33002.32996.66998.66998,1,1l3,9v2c1.33002,4.66998,2.66998,9.32996,4,14h4c1.33002,3.32996,2.66998,6.66998,4,10-.78003-.19-1.56-.38-2.34003-.57001.78003,7.85999,1.56,15.71002,2.34003,23.57001.33002.66998.66998,1.32996,1,2,1.66998-.67004,3.33002-1.33002,5-2-.66998,2-1.33002,4-2,6,1.33002,14.32996,2.66998,28.66998,4,43,.66998-1,1.33002-2,2-3l3,30c-.33002,1-.66998,2-1,3,1.33002,12.66998,2.66998,25.32996,4,38,10.66666-19,21.33334-38,32-57,18.66666,15.33334,37.33334,30.66669,56,46,7.66666-8.33331,15.33334-16.66669,23-25,4.66666-12.33334,9.33334-24.66666,14-37,5.66666,7.33334,11.33334,14.66666,17,22,1,7.33334,2,14.66666,3,22,7,8.33331,14,16.66669,21,25l27,15c40.33331-14.66669,80.66669-29.33331,121-44,8.33331-8,16.66669-16,25-24,11.31,16.34665,22.62,32.6933,33.92999,49.03998-.00336-.01331-.00665-.02667-.01001-.03998.66669-15.33331,1.33331-30.66666,2-46,2-1.67004,4-3.33002,6-5,4-22.33002,8-44.67004,12-67,2,6.66998,4,13.32996,6,20,3.5-32.44,6.98999-64.89001,10.48999-97.33002-1.16998-3.56-2.32996-7.10999-3.48999-10.66998,1.33002-8.67004,2.67004-17.33002,4-26,1.72003-2.48999,3.45001-4.98004,5.17004-7.48004,3.12-24.17999,6.22998-48.37,9.33997-72.54999,2.5-6.65997,4.98999-13.31,7.48999-19.96997,4.33002-27,8.67004-54,13-81,2,22.66998,4,45.32996,6,68-1.32996,12.32996-2.66998,24.66998-4,37,3.03003,22.73999,6.04999,45.47998,9.08002,68.21997,1.64001,1.59003,3.28003,3.19,4.91998,4.78003,1.33002,10.66998,2.67004,21.32996,4,32-1.22998,3.21997-2.45996,6.44-3.67999,9.65997,4.56,40.45001,9.12,80.89001,13.67999,121.34003,3.67004-9,7.33002-18,11-27,3.33002,16,6.67004,32,10,48,1,2.66998,2,5.32996,3,8,.11005,5.13.22003,10.25.33002,15.38,14.91998-12.46002,29.83002-24.92004,44.75-37.38l138-6c22.33008-12,44.66992-24,67-36,5.33008-22.67004,10.66992-45.33002,16-68-6-9.33002-12-18.67004-18-28,1-9.33002,2-18.67004,3-28,9.33008-2.67004,18.66992-5.33002,28-8l18-75c-.33008-7.67004-.66992-15.33002-1-23,3.66992-6.33002,7.33008-12.67004,11-19,3.33008-16.33002,6.66992-32.67004,10-49,2.66992,14,5.33008,28,8,42-1.66992,8.32996-3.33008,16.66998-5,25,1,7.66998,2,15.32996,3,23,6,18.32996,12,36.66998,18,55,6-8.67004,12-17.33002,18-26h53c.33008-2.33002.66992-4.67004,1-7-5.33008-.33002-10.66992-.67004-16-1,64.33008-72.67004,128.66992-145.33002,193-218v-6c1.66992-5,3.33008-10,5-15,1.66992,5,3.33008,10,5,15v6c69.66992,74,139.33008,148,209,222-7,.32996-14,.66998-21,1,1,3.32996,2,6.66998,3,10l54-3c4.5-2.52002,9-5.04004,13.5-7.56,3.84009-14.48004,7.66992-28.96002,11.5-43.44,4.46997,9.82996,8.92993,19.65997,13.40002,29.5,3.87-2.17004,7.72998-4.33002,11.59998-6.5,2.06006-13.35004,4.12-26.70001,6.17993-40.04999-2.05994-4.32001-4.11987-8.63-6.17993-12.95001,3.33008-16,6.66992-32,10-48,2.37-2.88,4.73999-5.77002,7.10999-8.65002,3.63-23.12,7.26001-46.22998,10.89001-69.34998,4.18994,22.98999,8.38,45.98999,12.57007,68.97998,3.13989,3.01001,6.28992,6.01001,9.42993,9.02002,2.33008,14.32996,4.66992,28.66998,7,43-1.66992,3.57001-3.33008,7.14996-5,10.71997,5.66992,31.10004,11.33008,62.19,17,93.28003,6.66992,9.32996,13.33008,18.66998,20,28,10.66992-6.33002,21.33008-12.67004,32-19,4.33008-10.67004,8.66992-21.33002,13-32,6-14.67004,12-29.33002,18-44-.66992-6-1.33008-12-2-18l21-39Z"/>
</svg>