<?xml version="1.0" encoding="UTF-8"?>
<svg id="a" data-name="Layer 1" xmlns="http://www.w3.org/2000/svg" viewBox="0 0 1920 1080">
  <defs>
    <style>
      .e {
        fill: #27272a;
      }
    </style>
  </defs>
  <path id="c" data-name="middleground" class="e" d="m1920,435v645H0v-500.37c4-26.54004,8-53.09003,12-79.63,14-11.33002,28-22.67004,42-34,27.33002,18.32996,54.66998,36.66998,82,55,39.33002-2,78.66998-4,118-6,7.33002,51,14.66998,102,22,153,35.14001,5.96997,70.27002,11.95001,105.40997,17.91998.04004-.39001.09003-.77997.13-1.17999.04004-.39001.08002-.78003.12-1.16998-.58997-2.86005-1.17999-5.71002-1.76996-8.57001.58997-10.95001,1.17999-21.90002,1.76996-32.85999,1.77002-1.19,3.53003-2.38,5.30005-3.57001,3.52997-15.95001,7.07001-31.90002,10.59998-47.86005,1.77002,4.77002,3.53998,9.53003,5.31,14.29004,3.09003-23.17004,6.16998-46.35004,9.26001-69.52002-1.02002-2.53998-2.04999-5.08002-3.08002-7.62,1.17999-6.19,2.35999-12.38,3.54004-18.57001,1.51996-1.77997,3.03998-3.56,4.56995-5.34998,2.75-17.27002,5.5-34.54999,8.25-51.82001,2.21002-4.75,4.41003-9.51001,6.62006-14.26001,3.82996-19.28998,7.65997-38.57001,11.47998-57.85999,1.77002,16.19,3.53998,32.38,5.31,48.57001l-3.53998,26.42999c2.67999,16.23999,5.34998,32.47998,8.02997,48.72998,1.45001,1.14001,2.89001,2.27002,4.34003,3.41003l3.53998,22.85999c-1.09003,2.29999-2.16998,4.59998-3.26001,6.89996,4.03003,28.89001,8.06,57.78003,12.09003,86.67004,3.23999-6.42999,6.47998-12.86005,9.72998-19.28003,2.94,11.41998,5.89001,22.85004,8.83002,34.28003.88995,1.90997,1.76996,3.81,2.64996,5.71997.30005,10.95001.59003,21.90002.89001,32.85004-.78998,2.16998-1.58997,4.32996-2.38,6.5.16998,6.70996.35004,13.40997.52002,20.12,27.15997-5.11005,54.33002-10.21002,81.48999-15.32001-.45001-1.08002-.90002-2.17004-1.35999-3.25.26996-8.56.52997-17.12.78998-25.67999.78998-1.49005,1.59003-2.98004,2.38-4.46002,2.63-8.92999,5.26001-17.85999,7.90002-26.78998,2.88995,5.01996,5.78998,10.03998,8.69,15.06995,3.59998-22.57996,7.19995-45.14996,10.79999-67.72998,1.38-8.64001,2.76001-17.27997,4.14001-25.91998,1.33997-19.58002,2.67999-39.15002,4.01996-58.72998,1.58002-12.65002,3.16003-25.30005,4.73999-37.95001,9.21002,33.66998,18.43005,67.34998,27.65002,101.01996.13,6.83002.27002,13.65002.40002,20.47003,11.69995,9.5,23.39996,19.01001,35.09998,28.51001l21-45c6.33002,3.32996,12.66998,6.66998,19,10,11-2.67004,22-5.33002,33-8,5.33002-14,10.66998-28,16-42l24-33c4.66998,9.32996,9.33002,18.66998,14,28l18,6c8-9.33002,16-18.67004,24-28,.33002-8.67004.66998-17.33002,1-26-1.66998-5-3.33002-10-5-15,.66998-6.33002,1.33002-12.67004,2-19,2.66998,1,5.33002,2,8,3,.29999-1.75.90002-5,1.90997-8.98004,10.06-39.70996,41.79004-76.64996,81.49005-90.95996,4-1.44,7.31995-2.38,9.35999-2.91003-.26001-1.04999-.51001-2.09998-.76001-3.14996v-3h6c.66998-6.33002,1.33002-12.67004,2-19-.66998-.33002-1.33002-.67004-2-1v-5c1-.33002,2-.67004,3-1,4.33002-6,8.66998-12,13-18h3l12,18c.66998.32996,1.33002.66998,2,1v5c-.33002.66998-.66998,1.32996-1,2,.26001,5.40997.53003,10.82001.78998,16.23999,1.74005-.08002,3.47003-.16003,5.21002-.23999v3c-.28998.96997-.58002,1.92999-.87,2.89996,1.31.17999,3.82001.55005,6.92999,1.19,46.36993,9.53003,87.95001,50.06,99.84003,94.42004.56995,2.12.94995,3.81995,1.09998,4.48999,2-1.67004,4-3.33002,6-5,1.33008,4.66998,2.66992,9.32996,4,14-2,2.32996-4,4.66998-6,7,.33008,3.32996.66992,6.66998,1,10,46.33008-1.33002,92.66992-2.67004,139-4,9.32007,5.92999,18.65002,11.87,27.96997,17.79999.34009-2.70001.67004-5.40997,1-8.10999-.63989-2.66003-1.28003-5.31-1.91992-7.96002.63989-10.15997,1.28003-20.32001,1.91992-30.48999,1.92004-1.09998,3.84009-2.21002,5.77002-3.31,3.84009-14.79999,7.67993-29.60004,11.52002-44.41003,1.91992,4.42004,3.83997,8.84003,5.77002,13.26001,3.34998-21.5,6.70996-43.01001,10.06995-64.51001-1.12-2.35999-2.22998-4.71997-3.34998-7.06995,1.28003-5.75,2.56006-11.49005,3.84009-17.23004,1.65991-1.65997,3.30994-3.31,4.96997-4.95996,2.98999-16.03003,5.97998-32.06,8.96997-48.09003,2.3999-4.40997,4.80005-8.82001,7.18994-13.22998,4.17004-17.90002,8.33008-35.79004,12.48999-53.69,1.92004,15.01996,3.84009,30.04999,5.76001,45.07001-1.28003,8.16998-2.56006,16.34998-3.83997,24.51996,2.91003,15.07001,5.81995,30.15002,8.71997,45.22003,1.57996,1.04999,3.15002,2.10999,4.7301,3.16998,1.27991,7.07001,2.55994,14.14001,3.83984,21.21002-1.17993,2.13-2.35986,4.26001-3.53992,6.39996,4.38,26.81,8.77002,53.61005,13.15002,80.42004,3.52002-5.96002,7.04004-11.93005,10.56006-17.89001,3.19995,10.59998,6.40991,21.20996,9.60986,31.81.95996,1.77002,1.92004,3.53998,2.88013,5.29999.31995,10.16998.63989,20.33002.95996,30.48999,15.22998,3.87668,30.45996,7.75333,45.68994,11.63,7.43994-13.03998,14.88-26.07001,22.32007-39.10999,6.81995-14,13.62988-28,20.44995-42.01001,2.34998-7.98999,4.69995-15.97998,7.05005-23.96997,3.85986-13.14001,7.71997-26.28003,11.58997-39.42004,3.95007-16.94,7.91003-33.88995,11.85999-50.83997,5.34009,17.67999,10.67993,35.35999,16.03003,53.02997,3.75,12.36005,7.5,24.71002,11.26001,37.06.23999,15.30005.46997,30.61005.70996,45.91003,7.58008,15.07996,15.16992,30.14996,22.75,45.22998,4.55005-4.89001,9.09998-9.77997,13.65002-14.66998,4.13,8.69,8.25989,17.38,12.40002,26.07001,9.17664,1.38666,18.35339,2.77332,27.53003,4.15997,2.10986-1.21002,4.20996-2.41998,6.31995-3.63,7.0199-7.25,14.03992-14.51001,21.04993-21.76001,7.71997,4.08002,15.44006,8.16003,23.16003,12.24005,9.60999-18.34003,19.21008-36.68005,28.80994-55.03003,7.23999-22.91998,14.48999-45.84998,21.7301-68.77002,4.20996-10.27997,8.42004-20.56,12.63-30.83997,9.12,12.23999,18.25,24.48999,27.37,36.72998,5.25989,3.02002,10.50989,6.03998,15.75989,9.06,6.56006,10.97003,13.12012,21.92999,19.67017,32.90002,3.98999,6.66998,7.97998,13.34998,11.96997,20.01996,24.72998,1.43005,49.46997,2.86005,74.19995,4.29004l15-42c2.37,26.63,4.73999,53.25,7.12,79.87,7.96008-1.96002,15.92004-3.91003,23.88-5.87Z"/>
</svg>