<?xml version="1.0" encoding="UTF-8"?>
<svg id="a" data-name="Layer 1" xmlns="http://www.w3.org/2000/svg" xmlns:xlink="http://www.w3.org/1999/xlink" viewBox="0 0 1920 1080">
  <defs>
    <style>
      .k {
        fill: #18181b;
      }

      .l {
        fill: url(#c);
        opacity: .24;
      }

      .m, .n, .o {
        opacity: .5;
      }

      .p {
        fill: #ea836d;
      }

      .q {
        fill: #27272a;
      }

      .r {
        fill: #3f3f46;
      }

      .n {
        fill: url(#e);
      }

      .o {
        fill: url(#h);
      }
    </style>
    <radialGradient id="c" cx="544.57597" cy="436.52495" fx="544.57597" fy="436.52495" r="1443.70313" gradientUnits="userSpaceOnUse">
      <stop offset="0" stop-color="#ea836d"/>
      <stop offset=".09985" stop-color="#e47f6a" stop-opacity=".97509"/>
      <stop offset=".23125" stop-color="#d37662" stop-opacity=".9043"/>
      <stop offset=".38034" stop-color="#b86755" stop-opacity=".78759"/>
      <stop offset=".54248" stop-color="#925144" stop-opacity=".62474"/>
      <stop offset=".71518" stop-color="#61362d" stop-opacity=".41563"/>
      <stop offset=".89392" stop-color="#261511" stop-opacity=".1645"/>
      <stop offset="1" stop-color="#000" stop-opacity="0"/>
    </radialGradient>
    <radialGradient id="e" cx="1233.0213" cy="96.41297" fx="1233.0213" fy="96.41297" r="1652.03125" gradientTransform="translate(0 1084.2256) scale(1 .62047)" gradientUnits="userSpaceOnUse">
      <stop offset="0" stop-color="#ea836d"/>
      <stop offset=".37913" stop-color="#e8816c" stop-opacity=".99199"/>
      <stop offset=".51571" stop-color="#e17e68" stop-opacity=".96297"/>
      <stop offset=".61305" stop-color="#d57763" stop-opacity=".91244"/>
      <stop offset=".6918" stop-color="#c46e5b" stop-opacity=".84022"/>
      <stop offset=".75927" stop-color="#ae6151" stop-opacity=".74608"/>
      <stop offset=".81903" stop-color="#935244" stop-opacity=".62977"/>
      <stop offset=".87305" stop-color="#724035" stop-opacity=".49122"/>
      <stop offset=".92272" stop-color="#4d2b23" stop-opacity=".32991"/>
      <stop offset=".96691" stop-color="#241410" stop-opacity=".15419"/>
      <stop offset="1" stop-color="#000" stop-opacity="0"/>
    </radialGradient>
    <radialGradient id="h" cx="1001.02124" cy="-708.09749" fx="1001.02124" fy="-708.09749" gradientTransform="translate(0 1374.25274) scale(1 .41617)" xlink:href="#e"/>
  </defs>
  <g id="b" data-name="moon">
    <circle class="l" cx="544.57597" cy="436.52495" r="1443.70313"/>
    <g>
      <circle class="p" cx="544.98438" cy="429.625" r="180"/>
      <path class="m" d="m516.98438,556.625c5.58038-.38959,21.12213-1.47467,36-11,3.76019-2.40741,8.38559-5.93506,16-8,3.93427-1.06689,8.12262-2.14307,11,0,3.78198,2.81683,2.17535,7.41632,5,11,4.9859,6.32568,21.52814,5.32477,33-2,14.38403-9.1842,9.11969-20.85474,23-34,14.31482-13.55676,26.57007-9.37927,40-18,26.78729-17.19482,26.33014-68.62231,21-97-13.67743-72.81885-83.69348-122.98041-97-114-13.96863,9.42728,29.86554,87.1947,16,157-6.12531,30.83746-19.66071,40.73688-23,43-11.04895,7.48816-17.80835,3.70996-34,13-18.76889,10.7688-16.99954,18.6037-32,27-25.45688,14.24915-50.27539,2.72388-53,11-2.00693,6.09613,9.82266,17.3197,22,21,5.69031,1.71973,10.17926,1.40637,16,1Z"/>
      <path class="m" d="m390.98438,470.625c2.30847,8.79108,9.64349,36.724,32,46,1.67944.69684,13.54617,5.62048,18,1,5.69781-5.91101-7.62766-20.29333-9-49-.43671-9.13541-.71429-17.11505,4-25,6.28897-10.51871,15.19815-10.39291,16-17,1.24539-10.26172-19.80807-14.17099-24-31-2.60367-10.45276,2.73825-20.10587,6-26,8.98364-16.23386,20.7771-17.61807,38-32,17.75049-14.82251,34.4487-37.75671,30-44-4.4173-6.19919-31.04568,2.14636-51,16-29.33063,20.36328-40.67822,50.15338-49,72-8.59067,22.55249-20.34537,53.41132-11,89Z"/>
      <path class="m" d="m526.98438,596.625c14.43671,1.26422,25.12747-.08862,32-1,4.04861-.53687,40.37085-5.35364,41-15,.22437-3.44019-4.18378-6.29346-13-12-7.97937-5.16486-14.07556-9.11078-22-10-9.52817-1.06915-12.66263,3.2948-32,10-13.69324,4.74811-20.53989,7.12213-27,7-14.66739-.27734-33.40884-8.51624-40-23-3.5022-7.69592-1.66071-12.95068-7-17-3.99213-3.02765-7.4361-1.9212-20-3-15.39227-1.32166-18.8273-3.72113-20-2-3.21292,4.71552,18.37656,28.88397,45,45,28.10782,17.01459,53.79849,20.19421,63,21Z"/>
      <path class="m" d="m652.98438,514.625c-2.19989,2.31268-4.46661,6.87512-9,16-6.76825,13.62311-5.97382,14.21082-9,18-7.27814,9.11328-17.24438,12.43921-19,13-9.7854,3.12573-16.36011.79962-17,3-.74048,2.5462,7.08521,9.02429,16,10,3.24982.35565,10.67798.42157,29-14,17.73932-13.96295,13.61163-16.25653,30-29,7.28949-5.66821,14.97064-10.55225,20-21,1.20392-2.50098,4.49329-9.33411,2-12-1.09973-1.1759-3.52692-1.75745-21,5-17.80402,6.88544-20.62543,9.55493-22,11Z"/>
    </g>
  </g>
  <path id="d" data-name="background" class="r" d="m1920,148v932H0V416c1.40997-.04004,2.83002-.08002,4.23999-.12.25-2.29004.5-4.59003.76001-6.88h2c-.25,2.26996-.51001,4.54999-.76001,6.82001,1.59003-.04004,3.17999-.08002,4.77002-.13.26001-2.29999.51001-4.59003.77002-6.89001h2c-.25,2.27997-.51001,4.54999-.76001,6.83002,1.58997-.04004,3.17999-.09003,4.76996-.13.26001-2.29999.51001-4.60004.77002-6.90002h2c-.25,2.28003-.51001,4.56-.76001,6.84003,1.59003-.04004,3.17999-.09003,4.77002-.13.26001-2.29999.51001-4.60999.77002-6.91003h2c-.25,2.28003-.51001,4.57001-.76001,6.85004,1.58997-.04004,3.17999-.09003,4.76996-.13.25-2.31.51001-4.60999.77002-6.91998h2c-.26001,2.28998-.51001,4.56995-.76001,6.85999,1.59003-.04004,3.17999-.09003,4.77002-.13.25-2.31.51001-4.62.77002-6.92999h2c-.26001,2.28998-.51001,4.57996-.76001,6.87,1.58997-.04004,3.16998-.09003,4.76001-.13.25995-2.31.51996-4.63.76996-6.94h2c-.25,2.28998-.51001,4.59003-.76001,6.88,1.59003-.04999,3.18005-.09003,4.77002-.14001.26001-2.31.52002-4.63.77002-6.94h2c-.25,2.29999-.51001,4.59003-.77002,6.89001,1.59003-.04999,3.19-.09003,4.78003-.14001.25995-2.32001.51996-4.63.76996-6.95001h2c-.25,2.30005-.51001,4.60004-.76996,6.90002,1.58997-.04999,3.19-.09003,4.77997-.14001.25-2.32001.51001-4.64001.77002-6.95996h2c-.26001,2.29999-.51001,4.60999-.77002,6.90997,1.59003-.04999,3.19-.09003,4.78003-.14001.25-2.32001.51001-4.64996.76996-6.96997h2c-.25995,2.29999-.50995,4.60999-.76996,6.90997,1.58997-.03998,3.17999-.08002,4.76996-.13.26001-2.32996.52002-4.64996.78003-6.97998h2c-.26001,2.31-.51001,4.60999-.77002,6.91998,1.59003-.03998,3.17999-.08997,4.77002-.13.26001-2.32996.52002-4.65997.77997-6.98999h2c-.25995,2.31-.50995,4.62-.76996,6.92999,1.58997-.03998,3.17999-.08997,4.76996-.13.26001-2.32996.52002-4.66998.78003-7h2c-.26001,2.31-.52002,4.63-.77002,6.94,1.59003-.03998,3.17999-.08997,4.77002-.13.26001-2.33997.52002-4.66998.77997-7.00995h2c-.25995,2.31995-.51996,4.62994-.76996,6.94995,1.58997-.03998,3.17999-.08997,4.76996-.13.26001-2.33997.52002-4.67999.78003-7.01996h2c-.26001,2.32001-.52002,4.64001-.77002,6.95996,1.59003-.04999,3.17004-.08997,4.76001-.13.26001-2.33997.52002-4.68994.78003-7.02997h2c-.26001,2.32001-.51001,4.65002-.77002,6.96997,1.59003-.04999,3.17999-.08997,4.77002-.13995.25995-2.34003.51996-4.69.77997-7.03003h2c-.26001,2.33002-.51001,4.65002-.77997,6.97998,1.58997-.04999,3.19-.08997,4.77997-.13995.26001-2.35004.52002-4.69.78003-7.04004h2c-.26001,2.33002-.51001,4.66003-.78003,6.99005,1.59003-.05005,3.19-.09003,4.78003-.14001.26001-2.35004.51996-4.70001.77997-7.04999h2c-.26001,2.32996-.51996,4.66998-.77997,7,1.58997-.05005,3.19-.09003,4.77997-.14001.26001-2.35004.52002-4.71002.78003-7.06h2c-.26001,2.33997-.52002,4.66998-.78003,7.01001.07001-.01001.13-.01001.20001-.01001l51,63c1.33002,10.66998,2.66998,21.32996,4,32,15.33002,10.32996,30.66998,20.66998,46,31,11.66998,1.66998,23.33002,3.32996,35,5,.35999-5.08002.71002-10.17004,1.07001-15.25l-2.07001-3.75c.66998-10,1.33002-20,2-30,.66998.66998,1.33002,1.32996,2,2,2-17.67004,4-35.33002,6-53-.66998-2.67004-1.33002-5.33002-2-8,1.66998,1,3.33002,2,5,3,1.33002-.33002,2.66998-.67004,4-1l5.82001-31.71002c-.94-.09998-1.88-.19-2.82001-.28998,1.33002-2.33002,2.66998-4.67004,4-7,1-.67004,2-1.33002,3-2,1.66998-5.33002,3.33002-10.67004,5-16v-3c1-3.33002,2-6.67004,3-10,.33002-.67004.66998-1.33002,1-2,.88-2.98999,1.76001-5.98004,2.64001-8.96002.45001-1.02002.90997-2.02997,1.35999-3.03998.33002-2.33002.66998-4.67004,1-7,.66998,2.66998,1.33002,5.32996,2,8v3c1,3.66998,2,7.32996,3,11,.33002.32996.66998.66998,1,1l3,9v2c1.33002,4.66998,2.66998,9.32996,4,14h4c1.33002,3.32996,2.66998,6.66998,4,10-.78003-.19-1.56-.38-2.34003-.57001.78003,7.85999,1.56,15.71002,2.34003,23.57001.33002.66998.66998,1.32996,1,2,1.66998-.67004,3.33002-1.33002,5-2-.66998,2-1.33002,4-2,6,1.33002,14.32996,2.66998,28.66998,4,43,.66998-1,1.33002-2,2-3l3,30c-.33002,1-.66998,2-1,3,1.33002,12.66998,2.66998,25.32996,4,38,10.66666-19,21.33334-38,32-57,18.66666,15.33334,37.33334,30.66669,56,46,7.66666-8.33331,15.33334-16.66669,23-25,4.66666-12.33334,9.33334-24.66666,14-37,5.66666,7.33334,11.33334,14.66666,17,22,1,7.33334,2,14.66666,3,22,7,8.33331,14,16.66669,21,25l27,15c40.33331-14.66669,80.66669-29.33331,121-44,8.33331-8,16.66669-16,25-24,11.31,16.34665,22.62,32.6933,33.92999,49.03998-.00336-.01331-.00665-.02667-.01001-.03998.66669-15.33331,1.33331-30.66666,2-46,2-1.67004,4-3.33002,6-5,4-22.33002,8-44.67004,12-67,2,6.66998,4,13.32996,6,20,3.5-32.44,6.98999-64.89001,10.48999-97.33002-1.16998-3.56-2.32996-7.10999-3.48999-10.66998,1.33002-8.67004,2.67004-17.33002,4-26,1.72003-2.48999,3.45001-4.98004,5.17004-7.48004,3.12-24.17999,6.22998-48.37,9.33997-72.54999,2.5-6.65997,4.98999-13.31,7.48999-19.96997,4.33002-27,8.67004-54,13-81,2,22.66998,4,45.32996,6,68-1.32996,12.32996-2.66998,24.66998-4,37,3.03003,22.73999,6.04999,45.47998,9.08002,68.21997,1.64001,1.59003,3.28003,3.19,4.91998,4.78003,1.33002,10.66998,2.67004,21.32996,4,32-1.22998,3.21997-2.45996,6.44-3.67999,9.65997,4.56,40.45001,9.12,80.89001,13.67999,121.34003,3.67004-9,7.33002-18,11-27,3.33002,16,6.67004,32,10,48,1,2.66998,2,5.32996,3,8,.11005,5.13.22003,10.25.33002,15.38,14.91998-12.46002,29.83002-24.92004,44.75-37.38l138-6c22.33008-12,44.66992-24,67-36,5.33008-22.67004,10.66992-45.33002,16-68-6-9.33002-12-18.67004-18-28,1-9.33002,2-18.67004,3-28,9.33008-2.67004,18.66992-5.33002,28-8l18-75c-.33008-7.67004-.66992-15.33002-1-23,3.66992-6.33002,7.33008-12.67004,11-19,3.33008-16.33002,6.66992-32.67004,10-49,2.66992,14,5.33008,28,8,42-1.66992,8.32996-3.33008,16.66998-5,25,1,7.66998,2,15.32996,3,23,6,18.32996,12,36.66998,18,55,6-8.67004,12-17.33002,18-26h53c.33008-2.33002.66992-4.67004,1-7-5.33008-.33002-10.66992-.67004-16-1,64.33008-72.67004,128.66992-145.33002,193-218v-6c1.66992-5,3.33008-10,5-15,1.66992,5,3.33008,10,5,15v6c69.66992,74,139.33008,148,209,222-7,.32996-14,.66998-21,1,1,3.32996,2,6.66998,3,10l54-3c4.5-2.52002,9-5.04004,13.5-7.56,3.84009-14.48004,7.66992-28.96002,11.5-43.44,4.46997,9.82996,8.92993,19.65997,13.40002,29.5,3.87-2.17004,7.72998-4.33002,11.59998-6.5,2.06006-13.35004,4.12-26.70001,6.17993-40.04999-2.05994-4.32001-4.11987-8.63-6.17993-12.95001,3.33008-16,6.66992-32,10-48,2.37-2.88,4.73999-5.77002,7.10999-8.65002,3.63-23.12,7.26001-46.22998,10.89001-69.34998,4.18994,22.98999,8.38,45.98999,12.57007,68.97998,3.13989,3.01001,6.28992,6.01001,9.42993,9.02002,2.33008,14.32996,4.66992,28.66998,7,43-1.66992,3.57001-3.33008,7.14996-5,10.71997,5.66992,31.10004,11.33008,62.19,17,93.28003,6.66992,9.32996,13.33008,18.66998,20,28,10.66992-6.33002,21.33008-12.67004,32-19,4.33008-10.67004,8.66992-21.33002,13-32,6-14.67004,12-29.33002,18-44-.66992-6-1.33008-12-2-18l21-39Z"/>
  <ellipse id="f" data-name="background-light" class="n" cx="1233.0213" cy="1144.04716" rx="1652.03125" ry="1025.03927"/>
  <path id="g" data-name="middleground" class="q" d="m1920,435v645H0v-500.37c4-26.54004,8-53.09003,12-79.63,14-11.33002,28-22.67004,42-34,27.33002,18.32996,54.66998,36.66998,82,55,39.33002-2,78.66998-4,118-6,7.33002,51,14.66998,102,22,153,35.14001,5.96997,70.27002,11.95001,105.40997,17.91998.04004-.39001.09003-.77997.13-1.17999.04004-.39001.08002-.78003.12-1.16998-.58997-2.86005-1.17999-5.71002-1.76996-8.57001.58997-10.95001,1.17999-21.90002,1.76996-32.85999,1.77002-1.19,3.53003-2.38,5.30005-3.57001,3.52997-15.95001,7.07001-31.90002,10.59998-47.86005,1.77002,4.77002,3.53998,9.53003,5.31,14.29004,3.09003-23.17004,6.16998-46.35004,9.26001-69.52002-1.02002-2.53998-2.04999-5.08002-3.08002-7.62,1.17999-6.19,2.35999-12.38,3.54004-18.57001,1.51996-1.77997,3.03998-3.56,4.56995-5.34998,2.75-17.27002,5.5-34.54999,8.25-51.82001,2.21002-4.75,4.41003-9.51001,6.62006-14.26001,3.82996-19.28998,7.65997-38.57001,11.47998-57.85999,1.77002,16.19,3.53998,32.38,5.31,48.57001l-3.53998,26.42999c2.67999,16.23999,5.34998,32.47998,8.02997,48.72998,1.45001,1.14001,2.89001,2.27002,4.34003,3.41003l3.53998,22.85999c-1.09003,2.29999-2.16998,4.59998-3.26001,6.89996,4.03003,28.89001,8.06,57.78003,12.09003,86.67004,3.23999-6.42999,6.47998-12.86005,9.72998-19.28003,2.94,11.41998,5.89001,22.85004,8.83002,34.28003.88995,1.90997,1.76996,3.81,2.64996,5.71997.30005,10.95001.59003,21.90002.89001,32.85004-.78998,2.16998-1.58997,4.32996-2.38,6.5.16998,6.70996.35004,13.40997.52002,20.12,27.15997-5.11005,54.33002-10.21002,81.48999-15.32001-.45001-1.08002-.90002-2.17004-1.35999-3.25.26996-8.56.52997-17.12.78998-25.67999.78998-1.49005,1.59003-2.98004,2.38-4.46002,2.63-8.92999,5.26001-17.85999,7.90002-26.78998,2.88995,5.01996,5.78998,10.03998,8.69,15.06995,3.59998-22.57996,7.19995-45.14996,10.79999-67.72998,1.38-8.64001,2.76001-17.27997,4.14001-25.91998,1.33997-19.58002,2.67999-39.15002,4.01996-58.72998,1.58002-12.65002,3.16003-25.30005,4.73999-37.95001,9.21002,33.66998,18.43005,67.34998,27.65002,101.01996.13,6.83002.27002,13.65002.40002,20.47003,11.69995,9.5,23.39996,19.01001,35.09998,28.51001l21-45c6.33002,3.32996,12.66998,6.66998,19,10,11-2.67004,22-5.33002,33-8,5.33002-14,10.66998-28,16-42l24-33c4.66998,9.32996,9.33002,18.66998,14,28l18,6c8-9.33002,16-18.67004,24-28,.33002-8.67004.66998-17.33002,1-26-1.66998-5-3.33002-10-5-15,.66998-6.33002,1.33002-12.67004,2-19,2.66998,1,5.33002,2,8,3,.29999-1.75.90002-5,1.90997-8.98004,10.06-39.70996,41.79004-76.64996,81.49005-90.95996,4-1.44,7.31995-2.38,9.35999-2.91003-.26001-1.04999-.51001-2.09998-.76001-3.14996v-3h6c.66998-6.33002,1.33002-12.67004,2-19-.66998-.33002-1.33002-.67004-2-1v-5c1-.33002,2-.67004,3-1,4.33002-6,8.66998-12,13-18h3l12,18c.66998.32996,1.33002.66998,2,1v5c-.33002.66998-.66998,1.32996-1,2,.26001,5.40997.53003,10.82001.78998,16.23999,1.74005-.08002,3.47003-.16003,5.21002-.23999v3c-.28998.96997-.58002,1.92999-.87,2.89996,1.31.17999,3.82001.55005,6.92999,1.19,46.36993,9.53003,87.95001,50.06,99.84003,94.42004.56995,2.12.94995,3.81995,1.09998,4.48999,2-1.67004,4-3.33002,6-5,1.33008,4.66998,2.66992,9.32996,4,14-2,2.32996-4,4.66998-6,7,.33008,3.32996.66992,6.66998,1,10,46.33008-1.33002,92.66992-2.67004,139-4,9.32007,5.92999,18.65002,11.87,27.96997,17.79999.34009-2.70001.67004-5.40997,1-8.10999-.63989-2.66003-1.28003-5.31-1.91992-7.96002.63989-10.15997,1.28003-20.32001,1.91992-30.48999,1.92004-1.09998,3.84009-2.21002,5.77002-3.31,3.84009-14.79999,7.67993-29.60004,11.52002-44.41003,1.91992,4.42004,3.83997,8.84003,5.77002,13.26001,3.34998-21.5,6.70996-43.01001,10.06995-64.51001-1.12-2.35999-2.22998-4.71997-3.34998-7.06995,1.28003-5.75,2.56006-11.49005,3.84009-17.23004,1.65991-1.65997,3.30994-3.31,4.96997-4.95996,2.98999-16.03003,5.97998-32.06,8.96997-48.09003,2.3999-4.40997,4.80005-8.82001,7.18994-13.22998,4.17004-17.90002,8.33008-35.79004,12.48999-53.69,1.92004,15.01996,3.84009,30.04999,5.76001,45.07001-1.28003,8.16998-2.56006,16.34998-3.83997,24.51996,2.91003,15.07001,5.81995,30.15002,8.71997,45.22003,1.57996,1.04999,3.15002,2.10999,4.7301,3.16998,1.27991,7.07001,2.55994,14.14001,3.83984,21.21002-1.17993,2.13-2.35986,4.26001-3.53992,6.39996,4.38,26.81,8.77002,53.61005,13.15002,80.42004,3.52002-5.96002,7.04004-11.93005,10.56006-17.89001,3.19995,10.59998,6.40991,21.20996,9.60986,31.81.95996,1.77002,1.92004,3.53998,2.88013,5.29999.31995,10.16998.63989,20.33002.95996,30.48999,15.22998,3.87668,30.45996,7.75333,45.68994,11.63,7.43994-13.03998,14.88-26.07001,22.32007-39.10999,6.81995-14,13.62988-28,20.44995-42.01001,2.34998-7.98999,4.69995-15.97998,7.05005-23.96997,3.85986-13.14001,7.71997-26.28003,11.58997-39.42004,3.95007-16.94,7.91003-33.88995,11.85999-50.83997,5.34009,17.67999,10.67993,35.35999,16.03003,53.02997,3.75,12.36005,7.5,24.71002,11.26001,37.06.23999,15.30005.46997,30.61005.70996,45.91003,7.58008,15.07996,15.16992,30.14996,22.75,45.22998,4.55005-4.89001,9.09998-9.77997,13.65002-14.66998,4.13,8.69,8.25989,17.38,12.40002,26.07001,9.17664,1.38666,18.35339,2.77332,27.53003,4.15997,2.10986-1.21002,4.20996-2.41998,6.31995-3.63,7.0199-7.25,14.03992-14.51001,21.04993-21.76001,7.71997,4.08002,15.44006,8.16003,23.16003,12.24005,9.60999-18.34003,19.21008-36.68005,28.80994-55.03003,7.23999-22.91998,14.48999-45.84998,21.7301-68.77002,4.20996-10.27997,8.42004-20.56,12.63-30.83997,9.12,12.23999,18.25,24.48999,27.37,36.72998,5.25989,3.02002,10.50989,6.03998,15.75989,9.06,6.56006,10.97003,13.12012,21.92999,19.67017,32.90002,3.98999,6.66998,7.97998,13.34998,11.96997,20.01996,24.72998,1.43005,49.46997,2.86005,74.19995,4.29004l15-42c2.37,26.63,4.73999,53.25,7.12,79.87,7.96008-1.96002,15.92004-3.91003,23.88-5.87Z"/>
  <ellipse id="i" data-name="middleground-light" class="o" cx="1001.02124" cy="1079.56085" rx="1652.03125" ry="687.53275"/>
  <path id="j" data-name="foreground" class="k" d="m1920,545v535H0V476c24.66998,26.66998,49.33002,53.32996,74,80,6.45001,4.06,12.89001,8.13,19.34003,12.17999,3.48999-18.10999,6.97998-36.21002,10.47998-54.32001,3.09998-5.53003,6.21002-11.06,9.31-16.58002,5.40002-22.42999,10.78998-44.84998,16.17999-67.27997,2.48999,18.82996,4.97998,37.64996,7.47003,56.47998-1.66003,10.23999-3.32001,20.48999-4.98004,30.72998,3.77002,18.89001,7.53003,37.77002,11.29999,56.66003,2.04004,1.32001,4.08002,2.64996,6.12,3.96997,1.66003,8.86005,3.32001,17.72003,4.98004,26.58002-.29999.52002-.59003,1.03998-.89001,1.56,12.84998,8.09003,25.70001,16.19,38.54999,24.28998,1.75-3.19,3.5-6.37,5.26001-9.56,3.31-.58997,6.63-1.19,9.94-1.77997,9.81-17.13,19.62-34.25,29.42999-51.37-.15997-10.54999-.32001-21.10004-.47998-31.65002,7.90997-17.48999,15.81-34.98999,23.70996-52.48999l8.85004,71.07001c3.35999,6.44,6.71002,12.88,10.07001,19.33002,1.21997,20.88995,2.45001,41.78998,3.67999,62.67999,2.71002,2.75,5.41998,5.5,8.13,8.25.26996,2.42999.53998,4.87.81,7.29999,5.58002.32001,11.15997.63,16.73999.95001,15,1.32996,30,2.66998,45,4,30.33002,32,60.66998,64,91,96,10.29999-2.47003,20.59003-4.94,30.89001-7.41003.27997-9.76001.57001-19.51996.83997-29.26996.86005-1.74005,1.72003-3.47003,2.58002-5.20001,2.85999-10.39001,5.72003-20.78003,8.58002-31.17999,3.14001,5.84998,6.28998,11.69,9.44,17.53998,3.90997-26.27002,7.82001-52.53998,11.72998-78.81-1.04999-2.09003-2.09998-4.17999-3.15002-6.27002,1.14001-6.92999,2.28003-13.85999,3.43005-20.78998,1.39996-1.03003,2.81-2.07001,4.21997-3.10999,2.59998-14.76001,5.19-29.53003,7.78998-44.29999-1.13995-8.01001-2.28998-16.02002-3.42999-24.03003,1.71002-14.72998,3.42999-29.45001,5.15002-44.16998,3.71002,17.53998,7.42999,35.07001,11.14996,52.60999,2.14001,4.32001,4.28003,8.65002,6.42004,12.96997,2.67999,15.71002,5.34998,31.42004,8.01996,47.12006,1.48004,1.62,2.96002,3.23999,4.44,4.85999,1.14001,5.63,2.29004,11.26001,3.43005,16.89001-1,2.31-2,4.62-2.99005,6.92999,3,21.07001,6,42.13995,9,63.20996l26.46002-36.58997c9-9.66669,18-19.33331,27-29,103.66669-8,207.33331-16,311-24,7.33331,14.66669,14.66669,29.33331,22,44,16-2.33331,32-4.66669,48-7-3.56293-1.37622-7.6767-3.29517-12-6-2.65216-1.6593-4.98041-3.3623-7-5-.66669-17-1.33331-34-2-51-1-2.33331-2-4.66669-3-7v-12c13.31537-7.63977,30.38007-15.78198,51-22,36.30481-10.94788,68.23169-11.28729,89.68994-9.67004.05042-.09497,1.56458-2.94971,1.61511-3.04504.53748-1.01495,1.07495-2.02994,1.61487-3.04492,1.94006-19.69,3.89014-39.37,5.83008-59.06,1.56006-5.41003,3.10999-10.83002,4.66992-16.25,2.70007-21.97998,5.41016-43.95001,8.11011-65.92999,1.25,18.45001,2.5,36.89996,3.75,55.34998-.84009,10.04004-1.67004,20.08002-2.5,30.12,1.88989,18.5,3.78003,37.01001,5.66992,55.52002,31.18005,0,62.37012.01001,93.55005.01001,1-15.33002,2-30.67004,3-46-.43994-4.88-.87-9.77002-1.31006-14.65002,1.25-18.45001,2.5-36.89996,3.75-55.34998,2.70007,21.97998,5.40015,43.95001,8.11011,65.92999,1.54993,5.41998,3.10986,10.83997,4.66992,16.25,1.93994,19.69,3.89001,39.37,5.83008,59.06,1.06995,2.02997,2.1499,4.06,3.22998,6.08997.82996,7.05005,1.65991,14.10004,2.48999,21.16003,38.31006,4.23999,76.60999,8.47998,114.91992,12.71997,1.15015-4.87,2.31006-9.73999,3.46008-14.60999,1.70996,4.33002,3.43005,8.66003,5.14001,12.98999,3-21.07001,6-42.13995,9-63.20996-.98999-2.31-1.98999-4.62-2.98999-6.92999,1.13989-5.63,2.29004-11.26001,3.42993-16.89001l4.43994-4.85999c2.67017-15.70001,5.34009-31.41003,8.02002-47.12006,2.14014-4.31995,4.28003-8.64996,6.42004-12.96997,3.72009-17.53998,7.44006-35.07001,11.15002-52.60999,1.71997,14.71997,3.43994,29.44,5.1499,44.16998-1.13989,8.01001-2.28992,16.02002-3.42993,24.03003,2.6001,14.76996,5.18994,29.53998,7.79004,44.29999,1.40991,1.03998,2.82007,2.07996,4.21997,3.10999,1.15002,6.92999,2.29004,13.85999,3.42993,20.78998-1.04993,2.09003-2.09985,4.17999-3.1499,6.27002,3.55005,23.87,7.09998,47.72998,10.66992,71.59998,1.56006.17004,3.11011.34003,4.67004.52002,1.94006-3.62,3.89001-7.22998,5.82996-10.84998,1.09009,3.95001,2.17004,7.89996,3.26001,11.84998,15.47998,1.72003,30.96997,3.42999,46.45007,5.14001.06995-.63.14001-1.26001.20996-1.89001-.56995-2.59998-1.14001-5.20001-1.70996-7.79999.56995-9.95001,1.14001-19.91003,1.70996-29.87,1.72009-1.09003,3.43005-2.16998,5.15002-3.25,3.42993-14.51001,6.87-29.01001,10.30005-43.52002,1.70996,4.33002,3.42993,8.66003,5.1499,12.98999,3-21.07001,5.98999-42.13995,8.98999-63.20996-.98999-2.31-1.98999-4.62-2.98999-6.92999,1.15002-5.63,2.29004-11.26001,3.43005-16.89001,1.47998-1.62,2.95996-3.23999,4.44006-4.85999.57983-1.45001,1.15991-2.89001,1.72998-4.34003-1.31006-2.5-2.06006-5.34003-2.06006-8.35999,0-9.94,8.06006-18,18-18s18,8.06,18,18c0,3.21997-.84998,6.25-2.33008,8.85999.59009,1.21002,1.17017,2.42999,1.76001,3.64001,1.41016,1.03998,2.82007,2.07996,4.22009,3.10999,1.15002,6.92999,2.28992,13.85999,3.44006,20.78998-1.06006,2.09003-2.11011,4.17999-3.16016,6.27002,3.91016,26.27002,7.82007,52.53998,11.73999,78.81,3.14014-5.84998,6.29004-11.69,9.44006-17.53998,2.85999,10.39996,5.72009,20.78998,8.57996,31.17999,5.89014-.70001,11.78003-1.41003,17.67004-2.10999.34998-8,.70007-16.01001,1.04004-24.01001,2-1.67004,4-3.33002,6-5,4-22.33002,8-44.67004,12-67,2,6.66998,4,13.32996,6,20,3.5-32.44,7-64.89001,10.48999-97.33002-1.16003-3.56-2.31995-7.10999-3.48999-10.66998,1.33997-8.67004,2.67004-17.33002,4-26,1.72998-2.48999,3.44995-4.98004,5.18005-7.48004,3.10986-24.17999,6.21997-48.37,9.33984-72.54999,2.48999-6.65997,4.98999-13.31,7.4801-19.96997,4.33997-27,8.67004-54,13-81,2,22.66998,4,45.32996,6,68-1.32996,12.32996-2.66003,24.66998-4,37,3.02991,22.73999,6.05994,45.47998,9.07996,68.21997,1.64001,1.59003,3.28003,3.19,4.92004,4.78003,1.33997,10.66998,2.67004,21.32996,4,32-1.22009,3.21997-2.45007,6.44-3.68005,9.65997,4.56006,40.45001,9.12012,80.89001,13.68005,121.34003,3.67004-9,7.33997-18,11-27,3.33997,16,6.67004,32,10,48,1,2.66998,2,5.32996,3,8,.03992,2.01996.08997,4.03998.13,6.06,5.41992-.65002,10.83997-1.29004,16.26001-1.94,3.18994-10.39001,6.38989-20.78003,9.57996-31.17999,3.52002,5.84998,7.03992,11.69,10.53992,17.53998,4.38013-26.27002,8.75-52.53998,13.11011-78.81-1.17004-2.09003-2.34009-4.17999-3.53003-6.27002,1.29004-6.92999,2.56006-13.85999,3.8501-20.78998,1.55994-1.03003,3.12988-2.07001,4.70996-3.10999.65991-1.21002,1.29993-2.42999,1.95996-3.64001-1.65002-2.60999-2.6001-5.64001-2.6001-8.85999,0-9.94,9-18,20.1001-18s20.09998,8.06,20.09998,18c0,3.01996-.83997,5.85999-2.29993,8.35999.63989,1.45001,1.28992,2.89001,1.92993,4.34003,1.66003,1.62,3.31006,3.23999,4.95996,4.85999,1.28003,5.63,2.55005,11.26001,3.83008,16.89001-1.11011,2.31-2.22998,4.62-3.34009,6.92999,3.3501,21.07001,6.69006,42.13995,10.04004,63.20996,1.92004-4.32996,3.84009-8.65997,5.75-12.98999,3.83008,14.51001,7.67004,29.01001,11.51001,43.52002,1.91992,1.08002,3.83008,2.15997,5.75,3.25.51001,8.07001,1.03003,16.13,1.55005,24.19,8.90332-3.18665,17.80664-6.37335,26.70996-9.56Z"/>
</svg>