<?xml version="1.0" encoding="UTF-8"?>
<svg id="a" data-name="Layer 1" xmlns="http://www.w3.org/2000/svg" viewBox="0 0 1920 1080">
  <defs>
    <style>
      .c {
        fill: #18181b;
      }
    </style>
  </defs>
  <path id="b" data-name="foreground" class="c" d="m1920,545v535H0V476c24.66998,26.66998,49.33002,53.32996,74,80,6.45001,4.06,12.89001,8.13,19.34003,12.17999,3.48999-18.10999,6.97998-36.21002,10.47998-54.32001,3.09998-5.53003,6.21002-11.06,9.31-16.58002,5.40002-22.42999,10.78998-44.84998,16.17999-67.27997,2.48999,18.82996,4.97998,37.64996,7.47003,56.47998-1.66003,10.23999-3.32001,20.48999-4.98004,30.72998,3.77002,18.89001,7.53003,37.77002,11.29999,56.66003,2.04004,1.32001,4.08002,2.64996,6.12,3.96997,1.66003,8.86005,3.32001,17.72003,4.98004,26.58002-.29999.52002-.59003,1.03998-.89001,1.56,12.84998,8.09003,25.70001,16.19,38.54999,24.28998,1.75-3.19,3.5-6.37,5.26001-9.56,3.31-.58997,6.63-1.19,9.94-1.77997,9.81-17.13,19.62-34.25,29.42999-51.37-.15997-10.54999-.32001-21.10004-.47998-31.65002,7.90997-17.48999,15.81-34.98999,23.70996-52.48999l8.85004,71.07001c3.35999,6.44,6.71002,12.88,10.07001,19.33002,1.21997,20.88995,2.45001,41.78998,3.67999,62.67999,2.71002,2.75,5.41998,5.5,8.13,8.25.26996,2.42999.53998,4.87.81,7.29999,5.58002.32001,11.15997.63,16.73999.95001,15,1.32996,30,2.66998,45,4,30.33002,32,60.66998,64,91,96,10.29999-2.47003,20.59003-4.94,30.89001-7.41003.27997-9.76001.57001-19.51996.83997-29.26996.86005-1.74005,1.72003-3.47003,2.58002-5.20001,2.85999-10.39001,5.72003-20.78003,8.58002-31.17999,3.14001,5.84998,6.28998,11.69,9.44,17.53998,3.90997-26.27002,7.82001-52.53998,11.72998-78.81-1.04999-2.09003-2.09998-4.17999-3.15002-6.27002,1.14001-6.92999,2.28003-13.85999,3.43005-20.78998,1.39996-1.03003,2.81-2.07001,4.21997-3.10999,2.59998-14.76001,5.19-29.53003,7.78998-44.29999-1.13995-8.01001-2.28998-16.02002-3.42999-24.03003,1.71002-14.72998,3.42999-29.45001,5.15002-44.16998,3.71002,17.53998,7.42999,35.07001,11.14996,52.60999,2.14001,4.32001,4.28003,8.65002,6.42004,12.96997,2.67999,15.71002,5.34998,31.42004,8.01996,47.12006,1.48004,1.62,2.96002,3.23999,4.44,4.85999,1.14001,5.63,2.29004,11.26001,3.43005,16.89001-1,2.31-2,4.62-2.99005,6.92999,3,21.07001,6,42.13995,9,63.20996l26.46002-36.58997c9-9.66669,18-19.33331,27-29,103.66669-8,207.33331-16,311-24,7.33331,14.66669,14.66669,29.33331,22,44,16-2.33331,32-4.66669,48-7-3.56293-1.37622-7.6767-3.29517-12-6-2.65216-1.6593-4.98041-3.3623-7-5-.66669-17-1.33331-34-2-51-1-2.33331-2-4.66669-3-7v-12c13.31537-7.63977,30.38007-15.78198,51-22,36.30481-10.94788,68.23169-11.28729,89.68994-9.67004.05042-.09497,1.56458-2.94971,1.61511-3.04504.53748-1.01495,1.07495-2.02994,1.61487-3.04492,1.94006-19.69,3.89014-39.37,5.83008-59.06,1.56006-5.41003,3.10999-10.83002,4.66992-16.25,2.70007-21.97998,5.41016-43.95001,8.11011-65.92999,1.25,18.45001,2.5,36.89996,3.75,55.34998-.84009,10.04004-1.67004,20.08002-2.5,30.12,1.88989,18.5,3.78003,37.01001,5.66992,55.52002,31.18005,0,62.37012.01001,93.55005.01001,1-15.33002,2-30.67004,3-46-.43994-4.88-.87-9.77002-1.31006-14.65002,1.25-18.45001,2.5-36.89996,3.75-55.34998,2.70007,21.97998,5.40015,43.95001,8.11011,65.92999,1.54993,5.41998,3.10986,10.83997,4.66992,16.25,1.93994,19.69,3.89001,39.37,5.83008,59.06,1.06995,2.02997,2.1499,4.06,3.22998,6.08997.82996,7.05005,1.65991,14.10004,2.48999,21.16003,38.31006,4.23999,76.60999,8.47998,114.91992,12.71997,1.15015-4.87,2.31006-9.73999,3.46008-14.60999,1.70996,4.33002,3.43005,8.66003,5.14001,12.98999,3-21.07001,6-42.13995,9-63.20996-.98999-2.31-1.98999-4.62-2.98999-6.92999,1.13989-5.63,2.29004-11.26001,3.42993-16.89001l4.43994-4.85999c2.67017-15.70001,5.34009-31.41003,8.02002-47.12006,2.14014-4.31995,4.28003-8.64996,6.42004-12.96997,3.72009-17.53998,7.44006-35.07001,11.15002-52.60999,1.71997,14.71997,3.43994,29.44,5.1499,44.16998-1.13989,8.01001-2.28992,16.02002-3.42993,24.03003,2.6001,14.76996,5.18994,29.53998,7.79004,44.29999,1.40991,1.03998,2.82007,2.07996,4.21997,3.10999,1.15002,6.92999,2.29004,13.85999,3.42993,20.78998-1.04993,2.09003-2.09985,4.17999-3.1499,6.27002,3.55005,23.87,7.09998,47.72998,10.66992,71.59998,1.56006.17004,3.11011.34003,4.67004.52002,1.94006-3.62,3.89001-7.22998,5.82996-10.84998,1.09009,3.95001,2.17004,7.89996,3.26001,11.84998,15.47998,1.72003,30.96997,3.42999,46.45007,5.14001.06995-.63.14001-1.26001.20996-1.89001-.56995-2.59998-1.14001-5.20001-1.70996-7.79999.56995-9.95001,1.14001-19.91003,1.70996-29.87,1.72009-1.09003,3.43005-2.16998,5.15002-3.25,3.42993-14.51001,6.87-29.01001,10.30005-43.52002,1.70996,4.33002,3.42993,8.66003,5.1499,12.98999,3-21.07001,5.98999-42.13995,8.98999-63.20996-.98999-2.31-1.98999-4.62-2.98999-6.92999,1.15002-5.63,2.29004-11.26001,3.43005-16.89001,1.47998-1.62,2.95996-3.23999,4.44006-4.85999.57983-1.45001,1.15991-2.89001,1.72998-4.34003-1.31006-2.5-2.06006-5.34003-2.06006-8.35999,0-9.94,8.06006-18,18-18s18,8.06,18,18c0,3.21997-.84998,6.25-2.33008,8.85999.59009,1.21002,1.17017,2.42999,1.76001,3.64001,1.41016,1.03998,2.82007,2.07996,4.22009,3.10999,1.15002,6.92999,2.28992,13.85999,3.44006,20.78998-1.06006,2.09003-2.11011,4.17999-3.16016,6.27002,3.91016,26.27002,7.82007,52.53998,11.73999,78.81,3.14014-5.84998,6.29004-11.69,9.44006-17.53998,2.85999,10.39996,5.72009,20.78998,8.57996,31.17999,5.89014-.70001,11.78003-1.41003,17.67004-2.10999.34998-8,.70007-16.01001,1.04004-24.01001,2-1.67004,4-3.33002,6-5,4-22.33002,8-44.67004,12-67,2,6.66998,4,13.32996,6,20,3.5-32.44,7-64.89001,10.48999-97.33002-1.16003-3.56-2.31995-7.10999-3.48999-10.66998,1.33997-8.67004,2.67004-17.33002,4-26,1.72998-2.48999,3.44995-4.98004,5.18005-7.48004,3.10986-24.17999,6.21997-48.37,9.33984-72.54999,2.48999-6.65997,4.98999-13.31,7.4801-19.96997,4.33997-27,8.67004-54,13-81,2,22.66998,4,45.32996,6,68-1.32996,12.32996-2.66003,24.66998-4,37,3.02991,22.73999,6.05994,45.47998,9.07996,68.21997,1.64001,1.59003,3.28003,3.19,4.92004,4.78003,1.33997,10.66998,2.67004,21.32996,4,32-1.22009,3.21997-2.45007,6.44-3.68005,9.65997,4.56006,40.45001,9.12012,80.89001,13.68005,121.34003,3.67004-9,7.33997-18,11-27,3.33997,16,6.67004,32,10,48,1,2.66998,2,5.32996,3,8,.03992,2.01996.08997,4.03998.13,6.06,5.41992-.65002,10.83997-1.29004,16.26001-1.94,3.18994-10.39001,6.38989-20.78003,9.57996-31.17999,3.52002,5.84998,7.03992,11.69,10.53992,17.53998,4.38013-26.27002,8.75-52.53998,13.11011-78.81-1.17004-2.09003-2.34009-4.17999-3.53003-6.27002,1.29004-6.92999,2.56006-13.85999,3.8501-20.78998,1.55994-1.03003,3.12988-2.07001,4.70996-3.10999.65991-1.21002,1.29993-2.42999,1.95996-3.64001-1.65002-2.60999-2.6001-5.64001-2.6001-8.85999,0-9.94,9-18,20.1001-18s20.09998,8.06,20.09998,18c0,3.01996-.83997,5.85999-2.29993,8.35999.63989,1.45001,1.28992,2.89001,1.92993,4.34003,1.66003,1.62,3.31006,3.23999,4.95996,4.85999,1.28003,5.63,2.55005,11.26001,3.83008,16.89001-1.11011,2.31-2.22998,4.62-3.34009,6.92999,3.3501,21.07001,6.69006,42.13995,10.04004,63.20996,1.92004-4.32996,3.84009-8.65997,5.75-12.98999,3.83008,14.51001,7.67004,29.01001,11.51001,43.52002,1.91992,1.08002,3.83008,2.15997,5.75,3.25.51001,8.07001,1.03003,16.13,1.55005,24.19,8.90332-3.18665,17.80664-6.37335,26.70996-9.56Z"/>
</svg>